<?xml version="1.0" encoding="UTF-8" standalone="no"?>
<!DOCTYPE svg PUBLIC "-//W3C//DTD SVG 1.1//EN"
 "http://www.w3.org/Graphics/SVG/1.1/DTD/svg11.dtd">
<!-- Generated by graphviz version 2.38.0 (20140413.2041)
 -->
<!-- Title: controllers_diagram Pages: 1 -->
<svg width="796pt" height="816pt"
 viewBox="0.00 0.00 795.50 815.50" xmlns="http://www.w3.org/2000/svg" xmlns:xlink="http://www.w3.org/1999/xlink">
<g id="graph0" class="graph" transform="scale(1 1) rotate(0) translate(364 470)">
<title>controllers_diagram</title>
<polygon fill="none" stroke="none" points="-364,345.5 -364,-470 431.5,-470 431.5,345.5 -364,345.5"/>
<!-- _diagram_info -->
<g id="node1" class="node"><title>_diagram_info</title>
<text text-anchor="start" x="8" y="152.4" font-family="Times,serif" font-size="13.00">Controllers diagram</text>
<text text-anchor="start" x="8" y="166.4" font-family="Times,serif" font-size="13.00">Date: Apr 27 2017 &#45; 19:39</text>
<text text-anchor="start" x="8" y="180.4" font-family="Times,serif" font-size="13.00">Migration version: 20170427221613</text>
<text text-anchor="start" x="8" y="194.4" font-family="Times,serif" font-size="13.00">Generated by RailRoady 1.5.2</text>
<text text-anchor="start" x="8" y="208.4" font-family="Times,serif" font-size="13.00">http://railroady.prestonlee.com</text>
</g>
<!-- ProductsController -->
<g id="node2" class="node"><title>ProductsController</title>
<path fill="none" stroke="black" d="M-59.5,-144.5C-59.5,-144.5 35.5,-144.5 35.5,-144.5 41.5,-144.5 47.5,-150.5 47.5,-156.5 47.5,-156.5 47.5,-345.5 47.5,-345.5 47.5,-351.5 41.5,-357.5 35.5,-357.5 35.5,-357.5 -59.5,-357.5 -59.5,-357.5 -65.5,-357.5 -71.5,-351.5 -71.5,-345.5 -71.5,-345.5 -71.5,-156.5 -71.5,-156.5 -71.5,-150.5 -65.5,-144.5 -59.5,-144.5"/>
<text text-anchor="middle" x="-12" y="-342.3" font-family="Times,serif" font-size="14.00">ProductsController</text>
<polyline fill="none" stroke="black" points="-71.5,-334.5 47.5,-334.5 "/>
<text text-anchor="start" x="-63.5" y="-319.3" font-family="Times,serif" font-size="14.00">create</text>
<text text-anchor="start" x="-63.5" y="-304.3" font-family="Times,serif" font-size="14.00">destroy</text>
<text text-anchor="start" x="-63.5" y="-289.3" font-family="Times,serif" font-size="14.00">edit</text>
<text text-anchor="start" x="-63.5" y="-274.3" font-family="Times,serif" font-size="14.00">index</text>
<text text-anchor="start" x="-63.5" y="-259.3" font-family="Times,serif" font-size="14.00">new</text>
<text text-anchor="start" x="-63.5" y="-244.3" font-family="Times,serif" font-size="14.00">show</text>
<text text-anchor="start" x="-63.5" y="-229.3" font-family="Times,serif" font-size="14.00">update</text>
<polyline fill="none" stroke="black" points="-71.5,-221.5 47.5,-221.5 "/>
<polyline fill="none" stroke="black" points="-71.5,-197.5 47.5,-197.5 "/>
<text text-anchor="start" x="-63.5" y="-182.3" font-family="Times,serif" font-size="14.00">_layout</text>
<text text-anchor="start" x="-63.5" y="-167.3" font-family="Times,serif" font-size="14.00">product_params</text>
<text text-anchor="start" x="-63.5" y="-152.3" font-family="Times,serif" font-size="14.00">set_product</text>
</g>
<!-- ApplicationController -->
<g id="node3" class="node"><title>ApplicationController</title>
<path fill="none" stroke="black" d="M12,341C12,341 124,341 124,341 130,341 136,335 136,329 136,329 136,259 136,259 136,253 130,247 124,247 124,247 12,247 12,247 6,247 0,253 0,259 0,259 0,329 0,329 0,335 6,341 12,341"/>
<text text-anchor="middle" x="68" y="262.2" font-family="Times,serif" font-size="14.00">ApplicationController</text>
<polyline fill="none" stroke="black" points="0,270 136,270 "/>
<polyline fill="none" stroke="black" points="0,294 136,294 "/>
<polyline fill="none" stroke="black" points="0,318 136,318 "/>
<text text-anchor="start" x="8" y="333.2" font-family="Times,serif" font-size="14.00">_layout</text>
</g>
<!-- AnswersController -->
<g id="node4" class="node"><title>AnswersController</title>
<path fill="none" stroke="black" d="M174.5,-162.5C174.5,-162.5 269.5,-162.5 269.5,-162.5 275.5,-162.5 281.5,-168.5 281.5,-174.5 281.5,-174.5 281.5,-363.5 281.5,-363.5 281.5,-369.5 275.5,-375.5 269.5,-375.5 269.5,-375.5 174.5,-375.5 174.5,-375.5 168.5,-375.5 162.5,-369.5 162.5,-363.5 162.5,-363.5 162.5,-174.5 162.5,-174.5 162.5,-168.5 168.5,-162.5 174.5,-162.5"/>
<text text-anchor="middle" x="222" y="-360.3" font-family="Times,serif" font-size="14.00">AnswersController</text>
<polyline fill="none" stroke="black" points="162.5,-352.5 281.5,-352.5 "/>
<text text-anchor="start" x="170.5" y="-337.3" font-family="Times,serif" font-size="14.00">create</text>
<text text-anchor="start" x="170.5" y="-322.3" font-family="Times,serif" font-size="14.00">destroy</text>
<text text-anchor="start" x="170.5" y="-307.3" font-family="Times,serif" font-size="14.00">edit</text>
<text text-anchor="start" x="170.5" y="-292.3" font-family="Times,serif" font-size="14.00">index</text>
<text text-anchor="start" x="170.5" y="-277.3" font-family="Times,serif" font-size="14.00">new</text>
<text text-anchor="start" x="170.5" y="-262.3" font-family="Times,serif" font-size="14.00">show</text>
<text text-anchor="start" x="170.5" y="-247.3" font-family="Times,serif" font-size="14.00">update</text>
<polyline fill="none" stroke="black" points="162.5,-239.5 281.5,-239.5 "/>
<polyline fill="none" stroke="black" points="162.5,-215.5 281.5,-215.5 "/>
<text text-anchor="start" x="170.5" y="-200.3" font-family="Times,serif" font-size="14.00">_layout</text>
<text text-anchor="start" x="170.5" y="-185.3" font-family="Times,serif" font-size="14.00">answer_params</text>
<text text-anchor="start" x="170.5" y="-170.3" font-family="Times,serif" font-size="14.00">set_answer</text>
</g>
<!-- HomeController -->
<g id="node5" class="node"><title>HomeController</title>
<path fill="none" stroke="black" d="M-348,-360.5C-348,-360.5 -266,-360.5 -266,-360.5 -260,-360.5 -254,-366.5 -254,-372.5 -254,-372.5 -254,-441.5 -254,-441.5 -254,-447.5 -260,-453.5 -266,-453.5 -266,-453.5 -348,-453.5 -348,-453.5 -354,-453.5 -360,-447.5 -360,-441.5 -360,-441.5 -360,-372.5 -360,-372.5 -360,-366.5 -354,-360.5 -348,-360.5"/>
<text text-anchor="middle" x="-307" y="-438.3" font-family="Times,serif" font-size="14.00">HomeController</text>
<polyline fill="none" stroke="black" points="-360,-430.5 -254,-430.5 "/>
<text text-anchor="start" x="-352" y="-415.3" font-family="Times,serif" font-size="14.00">index</text>
<polyline fill="none" stroke="black" points="-360,-407.5 -254,-407.5 "/>
<polyline fill="none" stroke="black" points="-360,-383.5 -254,-383.5 "/>
<text text-anchor="start" x="-352" y="-368.3" font-family="Times,serif" font-size="14.00">_layout</text>
</g>
<!-- OrdersController -->
<g id="node6" class="node"><title>OrdersController</title>
<path fill="none" stroke="black" d="M-203.5,-252.5C-203.5,-252.5 -118.5,-252.5 -118.5,-252.5 -112.5,-252.5 -106.5,-258.5 -106.5,-264.5 -106.5,-264.5 -106.5,-453.5 -106.5,-453.5 -106.5,-459.5 -112.5,-465.5 -118.5,-465.5 -118.5,-465.5 -203.5,-465.5 -203.5,-465.5 -209.5,-465.5 -215.5,-459.5 -215.5,-453.5 -215.5,-453.5 -215.5,-264.5 -215.5,-264.5 -215.5,-258.5 -209.5,-252.5 -203.5,-252.5"/>
<text text-anchor="middle" x="-161" y="-450.3" font-family="Times,serif" font-size="14.00">OrdersController</text>
<polyline fill="none" stroke="black" points="-215.5,-442.5 -106.5,-442.5 "/>
<text text-anchor="start" x="-207.5" y="-427.3" font-family="Times,serif" font-size="14.00">create</text>
<text text-anchor="start" x="-207.5" y="-412.3" font-family="Times,serif" font-size="14.00">destroy</text>
<text text-anchor="start" x="-207.5" y="-397.3" font-family="Times,serif" font-size="14.00">edit</text>
<text text-anchor="start" x="-207.5" y="-382.3" font-family="Times,serif" font-size="14.00">index</text>
<text text-anchor="start" x="-207.5" y="-367.3" font-family="Times,serif" font-size="14.00">new</text>
<text text-anchor="start" x="-207.5" y="-352.3" font-family="Times,serif" font-size="14.00">show</text>
<text text-anchor="start" x="-207.5" y="-337.3" font-family="Times,serif" font-size="14.00">update</text>
<polyline fill="none" stroke="black" points="-215.5,-329.5 -106.5,-329.5 "/>
<polyline fill="none" stroke="black" points="-215.5,-305.5 -106.5,-305.5 "/>
<text text-anchor="start" x="-207.5" y="-290.3" font-family="Times,serif" font-size="14.00">_layout</text>
<text text-anchor="start" x="-207.5" y="-275.3" font-family="Times,serif" font-size="14.00">order_params</text>
<text text-anchor="start" x="-207.5" y="-260.3" font-family="Times,serif" font-size="14.00">set_order</text>
</g>
<!-- CommentsController -->
<g id="node7" class="node"><title>CommentsController</title>
<path fill="none" stroke="black" d="M-60,107.5C-60,107.5 48,107.5 48,107.5 54,107.5 60,101.5 60,95.5 60,95.5 60,-93.5 60,-93.5 60,-99.5 54,-105.5 48,-105.5 48,-105.5 -60,-105.5 -60,-105.5 -66,-105.5 -72,-99.5 -72,-93.5 -72,-93.5 -72,95.5 -72,95.5 -72,101.5 -66,107.5 -60,107.5"/>
<text text-anchor="middle" x="-6" y="-90.3" font-family="Times,serif" font-size="14.00">CommentsController</text>
<polyline fill="none" stroke="black" points="-72,-82.5 60,-82.5 "/>
<text text-anchor="start" x="-64" y="-67.3" font-family="Times,serif" font-size="14.00">create</text>
<text text-anchor="start" x="-64" y="-52.3" font-family="Times,serif" font-size="14.00">destroy</text>
<text text-anchor="start" x="-64" y="-37.3" font-family="Times,serif" font-size="14.00">edit</text>
<text text-anchor="start" x="-64" y="-22.3" font-family="Times,serif" font-size="14.00">index</text>
<text text-anchor="start" x="-64" y="-7.3" font-family="Times,serif" font-size="14.00">new</text>
<text text-anchor="start" x="-64" y="7.7" font-family="Times,serif" font-size="14.00">show</text>
<text text-anchor="start" x="-64" y="22.7" font-family="Times,serif" font-size="14.00">update</text>
<polyline fill="none" stroke="black" points="-72,30.5 60,30.5 "/>
<polyline fill="none" stroke="black" points="-72,54.5 60,54.5 "/>
<text text-anchor="start" x="-64" y="69.7" font-family="Times,serif" font-size="14.00">_layout</text>
<text text-anchor="start" x="-64" y="84.7" font-family="Times,serif" font-size="14.00">comment_params</text>
<text text-anchor="start" x="-64" y="99.7" font-family="Times,serif" font-size="14.00">set_comment</text>
</g>
<!-- TagsController -->
<g id="node8" class="node"><title>TagsController</title>
<path fill="none" stroke="black" d="M336,-0.5C336,-0.5 410,-0.5 410,-0.5 416,-0.5 422,-6.5 422,-12.5 422,-12.5 422,-201.5 422,-201.5 422,-207.5 416,-213.5 410,-213.5 410,-213.5 336,-213.5 336,-213.5 330,-213.5 324,-207.5 324,-201.5 324,-201.5 324,-12.5 324,-12.5 324,-6.5 330,-0.5 336,-0.5"/>
<text text-anchor="middle" x="373" y="-198.3" font-family="Times,serif" font-size="14.00">TagsController</text>
<polyline fill="none" stroke="black" points="324,-190.5 422,-190.5 "/>
<text text-anchor="start" x="332" y="-175.3" font-family="Times,serif" font-size="14.00">create</text>
<text text-anchor="start" x="332" y="-160.3" font-family="Times,serif" font-size="14.00">destroy</text>
<text text-anchor="start" x="332" y="-145.3" font-family="Times,serif" font-size="14.00">edit</text>
<text text-anchor="start" x="332" y="-130.3" font-family="Times,serif" font-size="14.00">index</text>
<text text-anchor="start" x="332" y="-115.3" font-family="Times,serif" font-size="14.00">new</text>
<text text-anchor="start" x="332" y="-100.3" font-family="Times,serif" font-size="14.00">show</text>
<text text-anchor="start" x="332" y="-85.3" font-family="Times,serif" font-size="14.00">update</text>
<polyline fill="none" stroke="black" points="324,-77.5 422,-77.5 "/>
<polyline fill="none" stroke="black" points="324,-53.5 422,-53.5 "/>
<text text-anchor="start" x="332" y="-38.3" font-family="Times,serif" font-size="14.00">_layout</text>
<text text-anchor="start" x="332" y="-23.3" font-family="Times,serif" font-size="14.00">set_tag</text>
<text text-anchor="start" x="332" y="-8.3" font-family="Times,serif" font-size="14.00">tag_params</text>
</g>
<!-- UsersController -->
<g id="node9" class="node"><title>UsersController</title>
<path fill="none" stroke="black" d="M336.5,-252.5C336.5,-252.5 415.5,-252.5 415.5,-252.5 421.5,-252.5 427.5,-258.5 427.5,-264.5 427.5,-264.5 427.5,-453.5 427.5,-453.5 427.5,-459.5 421.5,-465.5 415.5,-465.5 415.5,-465.5 336.5,-465.5 336.5,-465.5 330.5,-465.5 324.5,-459.5 324.5,-453.5 324.5,-453.5 324.5,-264.5 324.5,-264.5 324.5,-258.5 330.5,-252.5 336.5,-252.5"/>
<text text-anchor="middle" x="376" y="-450.3" font-family="Times,serif" font-size="14.00">UsersController</text>
<polyline fill="none" stroke="black" points="324.5,-442.5 427.5,-442.5 "/>
<text text-anchor="start" x="332.5" y="-427.3" font-family="Times,serif" font-size="14.00">create</text>
<text text-anchor="start" x="332.5" y="-412.3" font-family="Times,serif" font-size="14.00">destroy</text>
<text text-anchor="start" x="332.5" y="-397.3" font-family="Times,serif" font-size="14.00">edit</text>
<text text-anchor="start" x="332.5" y="-382.3" font-family="Times,serif" font-size="14.00">index</text>
<text text-anchor="start" x="332.5" y="-367.3" font-family="Times,serif" font-size="14.00">new</text>
<text text-anchor="start" x="332.5" y="-352.3" font-family="Times,serif" font-size="14.00">show</text>
<text text-anchor="start" x="332.5" y="-337.3" font-family="Times,serif" font-size="14.00">update</text>
<polyline fill="none" stroke="black" points="324.5,-329.5 427.5,-329.5 "/>
<polyline fill="none" stroke="black" points="324.5,-305.5 427.5,-305.5 "/>
<text text-anchor="start" x="332.5" y="-290.3" font-family="Times,serif" font-size="14.00">_layout</text>
<text text-anchor="start" x="332.5" y="-275.3" font-family="Times,serif" font-size="14.00">set_user</text>
<text text-anchor="start" x="332.5" y="-260.3" font-family="Times,serif" font-size="14.00">user_params</text>
</g>
<!-- ReviewsController -->
<g id="node10" class="node"><title>ReviewsController</title>
<path fill="none" stroke="black" d="M-221.5,-0.5C-221.5,-0.5 -126.5,-0.5 -126.5,-0.5 -120.5,-0.5 -114.5,-6.5 -114.5,-12.5 -114.5,-12.5 -114.5,-201.5 -114.5,-201.5 -114.5,-207.5 -120.5,-213.5 -126.5,-213.5 -126.5,-213.5 -221.5,-213.5 -221.5,-213.5 -227.5,-213.5 -233.5,-207.5 -233.5,-201.5 -233.5,-201.5 -233.5,-12.5 -233.5,-12.5 -233.5,-6.5 -227.5,-0.5 -221.5,-0.5"/>
<text text-anchor="middle" x="-174" y="-198.3" font-family="Times,serif" font-size="14.00">ReviewsController</text>
<polyline fill="none" stroke="black" points="-233.5,-190.5 -114.5,-190.5 "/>
<text text-anchor="start" x="-225.5" y="-175.3" font-family="Times,serif" font-size="14.00">create</text>
<text text-anchor="start" x="-225.5" y="-160.3" font-family="Times,serif" font-size="14.00">destroy</text>
<text text-anchor="start" x="-225.5" y="-145.3" font-family="Times,serif" font-size="14.00">edit</text>
<text text-anchor="start" x="-225.5" y="-130.3" font-family="Times,serif" font-size="14.00">index</text>
<text text-anchor="start" x="-225.5" y="-115.3" font-family="Times,serif" font-size="14.00">new</text>
<text text-anchor="start" x="-225.5" y="-100.3" font-family="Times,serif" font-size="14.00">show</text>
<text text-anchor="start" x="-225.5" y="-85.3" font-family="Times,serif" font-size="14.00">update</text>
<polyline fill="none" stroke="black" points="-233.5,-77.5 -114.5,-77.5 "/>
<polyline fill="none" stroke="black" points="-233.5,-53.5 -114.5,-53.5 "/>
<text text-anchor="start" x="-225.5" y="-38.3" font-family="Times,serif" font-size="14.00">_layout</text>
<text text-anchor="start" x="-225.5" y="-23.3" font-family="Times,serif" font-size="14.00">review_params</text>
<text text-anchor="start" x="-225.5" y="-8.3" font-family="Times,serif" font-size="14.00">set_review</text>
</g>
<!-- CategoriesController -->
<g id="node11" class="node"><title>CategoriesController</title>
<path fill="none" stroke="black" d="M102,89.5C102,89.5 208,89.5 208,89.5 214,89.5 220,83.5 220,77.5 220,77.5 220,-111.5 220,-111.5 220,-117.5 214,-123.5 208,-123.5 208,-123.5 102,-123.5 102,-123.5 96,-123.5 90,-117.5 90,-111.5 90,-111.5 90,77.5 90,77.5 90,83.5 96,89.5 102,89.5"/>
<text text-anchor="middle" x="155" y="-108.3" font-family="Times,serif" font-size="14.00">CategoriesController</text>
<polyline fill="none" stroke="black" points="90,-100.5 220,-100.5 "/>
<text text-anchor="start" x="98" y="-85.3" font-family="Times,serif" font-size="14.00">create</text>
<text text-anchor="start" x="98" y="-70.3" font-family="Times,serif" font-size="14.00">destroy</text>
<text text-anchor="start" x="98" y="-55.3" font-family="Times,serif" font-size="14.00">edit</text>
<text text-anchor="start" x="98" y="-40.3" font-family="Times,serif" font-size="14.00">index</text>
<text text-anchor="start" x="98" y="-25.3" font-family="Times,serif" font-size="14.00">new</text>
<text text-anchor="start" x="98" y="-10.3" font-family="Times,serif" font-size="14.00">show</text>
<text text-anchor="start" x="98" y="4.7" font-family="Times,serif" font-size="14.00">update</text>
<polyline fill="none" stroke="black" points="90,12.5 220,12.5 "/>
<polyline fill="none" stroke="black" points="90,36.5 220,36.5 "/>
<text text-anchor="start" x="98" y="51.7" font-family="Times,serif" font-size="14.00">_layout</text>
<text text-anchor="start" x="98" y="66.7" font-family="Times,serif" font-size="14.00">category_params</text>
<text text-anchor="start" x="98" y="81.7" font-family="Times,serif" font-size="14.00">set_category</text>
</g>
<!-- QuestionsController -->
<g id="node12" class="node"><title>QuestionsController</title>
<path fill="none" stroke="black" d="M-240,251.5C-240,251.5 -138,251.5 -138,251.5 -132,251.5 -126,245.5 -126,239.5 -126,239.5 -126,50.5 -126,50.5 -126,44.5 -132,38.5 -138,38.5 -138,38.5 -240,38.5 -240,38.5 -246,38.5 -252,44.5 -252,50.5 -252,50.5 -252,239.5 -252,239.5 -252,245.5 -246,251.5 -240,251.5"/>
<text text-anchor="middle" x="-189" y="53.7" font-family="Times,serif" font-size="14.00">QuestionsController</text>
<polyline fill="none" stroke="black" points="-252,61.5 -126,61.5 "/>
<text text-anchor="start" x="-244" y="76.7" font-family="Times,serif" font-size="14.00">create</text>
<text text-anchor="start" x="-244" y="91.7" font-family="Times,serif" font-size="14.00">destroy</text>
<text text-anchor="start" x="-244" y="106.7" font-family="Times,serif" font-size="14.00">edit</text>
<text text-anchor="start" x="-244" y="121.7" font-family="Times,serif" font-size="14.00">index</text>
<text text-anchor="start" x="-244" y="136.7" font-family="Times,serif" font-size="14.00">new</text>
<text text-anchor="start" x="-244" y="151.7" font-family="Times,serif" font-size="14.00">show</text>
<text text-anchor="start" x="-244" y="166.7" font-family="Times,serif" font-size="14.00">update</text>
<polyline fill="none" stroke="black" points="-252,174.5 -126,174.5 "/>
<polyline fill="none" stroke="black" points="-252,198.5 -126,198.5 "/>
<text text-anchor="start" x="-244" y="213.7" font-family="Times,serif" font-size="14.00">_layout</text>
<text text-anchor="start" x="-244" y="228.7" font-family="Times,serif" font-size="14.00">question_params</text>
<text text-anchor="start" x="-244" y="243.7" font-family="Times,serif" font-size="14.00">set_question</text>
</g>
<!-- CouponsController -->
<g id="node13" class="node"><title>CouponsController</title>
<path fill="none" stroke="black" d="M264,251.5C264,251.5 360,251.5 360,251.5 366,251.5 372,245.5 372,239.5 372,239.5 372,50.5 372,50.5 372,44.5 366,38.5 360,38.5 360,38.5 264,38.5 264,38.5 258,38.5 252,44.5 252,50.5 252,50.5 252,239.5 252,239.5 252,245.5 258,251.5 264,251.5"/>
<text text-anchor="middle" x="312" y="53.7" font-family="Times,serif" font-size="14.00">CouponsController</text>
<polyline fill="none" stroke="black" points="252,61.5 372,61.5 "/>
<text text-anchor="start" x="260" y="76.7" font-family="Times,serif" font-size="14.00">create</text>
<text text-anchor="start" x="260" y="91.7" font-family="Times,serif" font-size="14.00">destroy</text>
<text text-anchor="start" x="260" y="106.7" font-family="Times,serif" font-size="14.00">edit</text>
<text text-anchor="start" x="260" y="121.7" font-family="Times,serif" font-size="14.00">index</text>
<text text-anchor="start" x="260" y="136.7" font-family="Times,serif" font-size="14.00">new</text>
<text text-anchor="start" x="260" y="151.7" font-family="Times,serif" font-size="14.00">show</text>
<text text-anchor="start" x="260" y="166.7" font-family="Times,serif" font-size="14.00">update</text>
<polyline fill="none" stroke="black" points="252,174.5 372,174.5 "/>
<polyline fill="none" stroke="black" points="252,198.5 372,198.5 "/>
<text text-anchor="start" x="260" y="213.7" font-family="Times,serif" font-size="14.00">_layout</text>
<text text-anchor="start" x="260" y="228.7" font-family="Times,serif" font-size="14.00">coupon_params</text>
<text text-anchor="start" x="260" y="243.7" font-family="Times,serif" font-size="14.00">set_coupon</text>
</g>
</g>
</svg>
