<?xml version="1.0" encoding="UTF-8" standalone="no"?>
<!DOCTYPE svg PUBLIC "-//W3C//DTD SVG 1.1//EN"
 "http://www.w3.org/Graphics/SVG/1.1/DTD/svg11.dtd">
<!-- Generated by graphviz version 2.38.0 (20140413.2041)
 -->
<!-- Title: models_diagram Pages: 1 -->
<svg width="704pt" height="230pt"
 viewBox="0.00 0.00 704.34 230.00" xmlns="http://www.w3.org/2000/svg" xmlns:xlink="http://www.w3.org/1999/xlink">
<g id="graph0" class="graph" transform="scale(1 1) rotate(0) translate(4 226)">
<title>models_diagram</title>
<polygon fill="none" stroke="none" points="-4,4 -4,-226 700.343,-226 700.343,4 -4,4"/>
<!-- _diagram_info -->
<g id="node1" class="node"><title>_diagram_info</title>
<text text-anchor="start" x="8" y="-207.6" font-family="Times,serif" font-size="13.00">Models diagram</text>
<text text-anchor="start" x="8" y="-193.6" font-family="Times,serif" font-size="13.00">Date: Apr 27 2017 &#45; 18:24</text>
<text text-anchor="start" x="8" y="-179.6" font-family="Times,serif" font-size="13.00">Migration version: 20170427211947</text>
<text text-anchor="start" x="8" y="-165.6" font-family="Times,serif" font-size="13.00">Generated by RailRoady 1.5.2</text>
<text text-anchor="start" x="8" y="-151.6" font-family="Times,serif" font-size="13.00">http://railroady.prestonlee.com</text>
</g>
<!-- Answer -->
<g id="node2" class="node"><title>Answer</title>
<ellipse fill="none" stroke="black" cx="283" cy="-18" rx="38.1938" ry="18"/>
<text text-anchor="middle" x="283" y="-14.3" font-family="Times,serif" font-size="14.00">Answer</text>
</g>
<!-- Order -->
<g id="node3" class="node"><title>Order</title>
<ellipse fill="none" stroke="black" cx="213" cy="-90" rx="31.3957" ry="18"/>
<text text-anchor="middle" x="213" y="-86.3" font-family="Times,serif" font-size="14.00">Order</text>
</g>
<!-- QuestionVote -->
<g id="node4" class="node"><title>QuestionVote</title>
<ellipse fill="none" stroke="black" cx="147" cy="-18" rx="59.5901" ry="18"/>
<text text-anchor="middle" x="147" y="-14.3" font-family="Times,serif" font-size="14.00">QuestionVote</text>
</g>
<!-- Tag -->
<g id="node5" class="node"><title>Tag</title>
<ellipse fill="none" stroke="black" cx="497" cy="-183" rx="27" ry="18"/>
<text text-anchor="middle" x="497" y="-179.3" font-family="Times,serif" font-size="14.00">Tag</text>
</g>
<!-- ApplicationRecord -->
<g id="node6" class="node"><title>ApplicationRecord</title>
<ellipse fill="none" stroke="black" cx="619" cy="-183" rx="77.1866" ry="18"/>
<text text-anchor="middle" x="619" y="-179.3" font-family="Times,serif" font-size="14.00">ApplicationRecord</text>
</g>
<!-- Review -->
<g id="node7" class="node"><title>Review</title>
<ellipse fill="none" stroke="black" cx="440" cy="-90" rx="37.8943" ry="18"/>
<text text-anchor="middle" x="440" y="-86.3" font-family="Times,serif" font-size="14.00">Review</text>
</g>
<!-- Comment -->
<g id="node10" class="node"><title>Comment</title>
<ellipse fill="none" stroke="black" cx="395" cy="-18" rx="46.2923" ry="18"/>
<text text-anchor="middle" x="395" y="-14.3" font-family="Times,serif" font-size="14.00">Comment</text>
</g>
<!-- Review&#45;&gt;Comment -->
<g id="edge1" class="edge"><title>Review&#45;&gt;Comment</title>
<path fill="none" stroke="#528b05" d="M424.976,-65.6295C420.685,-58.9548 415.985,-51.6434 411.605,-44.8306"/>
<ellipse fill="none" stroke="#528b05" cx="427.173" cy="-69.0463" rx="4.00002" ry="4.00002"/>
<polygon fill="#528b05" stroke="#528b05" points="411.308,-44.368 409.686,-33.5228 408.604,-40.1621 405.9,-35.9562 405.9,-35.9562 405.9,-35.9562 408.604,-40.1621 402.115,-38.3896 411.308,-44.368 411.308,-44.368"/>
</g>
<!-- Question -->
<g id="node8" class="node"><title>Question</title>
<ellipse fill="none" stroke="black" cx="304" cy="-90" rx="42.4939" ry="18"/>
<text text-anchor="middle" x="304" y="-86.3" font-family="Times,serif" font-size="14.00">Question</text>
</g>
<!-- Question&#45;&gt;Answer -->
<g id="edge2" class="edge"><title>Question&#45;&gt;Answer</title>
<path fill="none" stroke="#0de78f" d="M296.58,-64.2675C294.802,-58.34 292.894,-51.9814 291.088,-45.9587"/>
<ellipse fill="none" stroke="#0de78f" cx="297.767" cy="-68.2236" rx="4.00001" ry="4.00001"/>
<polygon fill="#0de78f" stroke="#0de78f" points="291.056,-45.8536 292.493,-34.9822 289.619,-41.0644 288.183,-36.2753 288.183,-36.2753 288.183,-36.2753 289.619,-41.0644 283.872,-37.5684 291.056,-45.8536 291.056,-45.8536"/>
</g>
<!-- Question&#45;&gt;QuestionVote -->
<g id="edge3" class="edge"><title>Question&#45;&gt;QuestionVote</title>
<path fill="none" stroke="#0afdab" d="M268.29,-73.0785C244.513,-62.4773 213.194,-48.5132 188.337,-37.4305"/>
<ellipse fill="none" stroke="#0afdab" cx="272.278" cy="-74.8565" rx="4.00002" ry="4.00002"/>
<polygon fill="#0afdab" stroke="#0afdab" points="188.289,-37.4093 180.989,-29.2271 183.723,-35.3732 179.156,-33.3371 179.156,-33.3371 179.156,-33.3371 183.723,-35.3732 177.324,-37.4471 188.289,-37.4093 188.289,-37.4093"/>
</g>
<!-- Product -->
<g id="node9" class="node"><title>Product</title>
<ellipse fill="none" stroke="black" cx="414" cy="-183" rx="38.1938" ry="18"/>
<text text-anchor="middle" x="414" y="-179.3" font-family="Times,serif" font-size="14.00">Product</text>
</g>
<!-- Product&#45;&gt;Review -->
<g id="edge4" class="edge"><title>Product&#45;&gt;Review</title>
<path fill="none" stroke="#7723be" d="M421.098,-157.159C424.577,-144.979 428.773,-130.293 432.327,-117.855"/>
<ellipse fill="none" stroke="#7723be" cx="419.989" cy="-161.037" rx="4.00001" ry="4.00001"/>
<polygon fill="#7723be" stroke="#7723be" points="432.384,-117.655 439.458,-109.276 433.758,-112.847 435.132,-108.04 435.132,-108.04 435.132,-108.04 433.758,-112.847 430.805,-106.803 432.384,-117.655 432.384,-117.655"/>
</g>
<!-- Product&#45;&gt;Question -->
<g id="edge5" class="edge"><title>Product&#45;&gt;Question</title>
<path fill="none" stroke="#f5545a" d="M389.57,-161.79C372.014,-147.266 348.368,-127.705 330.382,-112.825"/>
<ellipse fill="none" stroke="#f5545a" cx="392.754" cy="-164.423" rx="4.00002" ry="4.00002"/>
<polygon fill="#f5545a" stroke="#f5545a" points="330.264,-112.728 325.427,-102.886 326.411,-109.54 322.559,-106.353 322.559,-106.353 322.559,-106.353 326.411,-109.54 319.69,-109.821 330.264,-112.728 330.264,-112.728"/>
</g>
<!-- User -->
<g id="node11" class="node"><title>User</title>
<ellipse fill="none" stroke="black" cx="259" cy="-183" rx="27.0966" ry="18"/>
<text text-anchor="middle" x="259" y="-179.3" font-family="Times,serif" font-size="14.00">User</text>
</g>
<!-- User&#45;&gt;Answer -->
<g id="edge9" class="edge"><title>User&#45;&gt;Answer</title>
<path fill="none" stroke="#fa7447" d="M240.367,-160.917C234.97,-155.21 228.93,-149.182 223,-144 202.381,-125.981 185.484,-132.372 173,-108 165.706,-93.7595 164.489,-85.5484 173,-72 187.371,-49.1239 214.694,-35.8895 238.512,-28.3663"/>
<ellipse fill="none" stroke="#fa7447" cx="243.216" cy="-163.995" rx="4.00002" ry="4.00002"/>
<polygon fill="#fa7447" stroke="#fa7447" points="238.513,-28.3662 249.372,-29.8925 243.314,-26.969 248.115,-25.5717 248.115,-25.5717 248.115,-25.5717 243.314,-26.969 246.857,-21.251 238.513,-28.3662 238.513,-28.3662"/>
</g>
<!-- User&#45;&gt;Order -->
<g id="edge10" class="edge"><title>User&#45;&gt;Order</title>
<path fill="none" stroke="#54a894" d="M247.025,-158.31C240.522,-145.446 232.48,-129.536 225.846,-116.414"/>
<ellipse fill="none" stroke="#54a894" cx="248.972" cy="-162.161" rx="4.00002" ry="4.00002"/>
<polygon fill="#54a894" stroke="#54a894" points="225.819,-116.36 225.324,-105.405 223.563,-111.897 221.308,-107.435 221.308,-107.435 221.308,-107.435 223.563,-111.897 217.292,-109.465 225.819,-116.36 225.819,-116.36"/>
</g>
<!-- User&#45;&gt;QuestionVote -->
<g id="edge11" class="edge"><title>User&#45;&gt;QuestionVote</title>
<path fill="none" stroke="#767c2a" d="M240.62,-160.616C235.225,-154.906 229.123,-148.953 223,-144 199.117,-124.681 181.492,-133.251 164,-108 151.511,-89.9722 147.583,-65.1847 146.596,-46.3466"/>
<ellipse fill="none" stroke="#767c2a" cx="243.459" cy="-163.71" rx="4.00002" ry="4.00002"/>
<polygon fill="#767c2a" stroke="#767c2a" points="146.595,-46.3026 150.811,-36.1796 146.453,-41.3046 146.312,-36.3066 146.312,-36.3066 146.312,-36.3066 146.453,-41.3046 141.814,-36.4335 146.595,-46.3026 146.595,-46.3026"/>
</g>
<!-- User&#45;&gt;Review -->
<g id="edge7" class="edge"><title>User&#45;&gt;Review</title>
<path fill="none" stroke="#1d1428" d="M287.649,-167.596C319.725,-151.47 371.673,-125.352 405.836,-108.176"/>
<ellipse fill="none" stroke="#1d1428" cx="283.691" cy="-169.586" rx="4.00002" ry="4.00002"/>
<polygon fill="#1d1428" stroke="#1d1428" points="406.035,-108.076 416.991,-107.605 410.502,-105.83 414.969,-103.584 414.969,-103.584 414.969,-103.584 410.502,-105.83 412.948,-99.564 406.035,-108.076 406.035,-108.076"/>
</g>
<!-- User&#45;&gt;Question -->
<g id="edge8" class="edge"><title>User&#45;&gt;Question</title>
<path fill="none" stroke="#064e3a" d="M270.691,-158.359C277.009,-145.582 284.818,-129.79 291.287,-116.708"/>
<ellipse fill="none" stroke="#064e3a" cx="268.818" cy="-162.145" rx="4.00002" ry="4.00002"/>
<polygon fill="#064e3a" stroke="#064e3a" points="291.287,-116.708 299.754,-109.739 293.504,-112.226 295.72,-107.744 295.72,-107.744 295.72,-107.744 293.504,-112.226 291.686,-105.749 291.287,-116.708 291.287,-116.708"/>
</g>
<!-- User&#45;&gt;Comment -->
<g id="edge6" class="edge"><title>User&#45;&gt;Comment</title>
<path fill="none" stroke="#d40516" d="M285.819,-166.476C306.89,-153.173 335.788,-132.337 355,-108 369.701,-89.3765 380.289,-64.4903 386.865,-45.7691"/>
<ellipse fill="none" stroke="#d40516" cx="282.401" cy="-168.59" rx="4.00002" ry="4.00002"/>
<polygon fill="#d40516" stroke="#d40516" points="386.933,-45.5651 394.373,-37.5092 388.519,-40.8233 390.105,-36.0816 390.105,-36.0816 390.105,-36.0816 388.519,-40.8233 385.838,-34.654 386.933,-45.5651 386.933,-45.5651"/>
</g>
</g>
</svg>
