<?xml version="1.0" encoding="UTF-8" standalone="no"?>
<!DOCTYPE svg PUBLIC "-//W3C//DTD SVG 1.1//EN"
 "http://www.w3.org/Graphics/SVG/1.1/DTD/svg11.dtd">
<!-- Generated by graphviz version 2.38.0 (20140413.2041)
 -->
<!-- Title: models_diagram Pages: 1 -->
<svg width="617pt" height="392pt"
 viewBox="0.00 0.00 616.69 392.00" xmlns="http://www.w3.org/2000/svg" xmlns:xlink="http://www.w3.org/1999/xlink">
<g id="graph0" class="graph" transform="scale(1 1) rotate(0) translate(4 388)">
<title>models_diagram</title>
<polygon fill="none" stroke="none" points="-4,4 -4,-388 612.69,-388 612.69,4 -4,4"/>
<!-- _diagram_info -->
<g id="node1" class="node"><title>_diagram_info</title>
<text text-anchor="start" x="64.3466" y="-369.6" font-family="Times,serif" font-size="13.00">Models diagram</text>
<text text-anchor="start" x="64.3466" y="-355.6" font-family="Times,serif" font-size="13.00">Date: Apr 27 2017 &#45; 19:39</text>
<text text-anchor="start" x="64.3466" y="-341.6" font-family="Times,serif" font-size="13.00">Migration version: 20170427221613</text>
<text text-anchor="start" x="64.3466" y="-327.6" font-family="Times,serif" font-size="13.00">Generated by RailRoady 1.5.2</text>
<text text-anchor="start" x="64.3466" y="-313.6" font-family="Times,serif" font-size="13.00">http://railroady.prestonlee.com</text>
</g>
<!-- Answer -->
<g id="node2" class="node"><title>Answer</title>
<ellipse fill="none" stroke="black" cx="38.3466" cy="-91" rx="38.1938" ry="18"/>
<text text-anchor="middle" x="38.3466" y="-87.3" font-family="Times,serif" font-size="14.00">Answer</text>
</g>
<!-- Order -->
<g id="node3" class="node"><title>Order</title>
<ellipse fill="none" stroke="black" cx="126.347" cy="-91" rx="31.3957" ry="18"/>
<text text-anchor="middle" x="126.347" y="-87.3" font-family="Times,serif" font-size="14.00">Order</text>
</g>
<!-- QuestionVote -->
<g id="node4" class="node"><title>QuestionVote</title>
<ellipse fill="none" stroke="black" cx="273.347" cy="-91" rx="59.5901" ry="18"/>
<text text-anchor="middle" x="273.347" y="-87.3" font-family="Times,serif" font-size="14.00">QuestionVote</text>
</g>
<!-- Tag -->
<g id="node5" class="node"><title>Tag</title>
<ellipse fill="none" stroke="black" cx="409.347" cy="-345" rx="27" ry="18"/>
<text text-anchor="middle" x="409.347" y="-341.3" font-family="Times,serif" font-size="14.00">Tag</text>
</g>
<!-- ApplicationRecord -->
<g id="node6" class="node"><title>ApplicationRecord</title>
<ellipse fill="none" stroke="black" cx="531.347" cy="-345" rx="77.1866" ry="18"/>
<text text-anchor="middle" x="531.347" y="-341.3" font-family="Times,serif" font-size="14.00">ApplicationRecord</text>
</g>
<!-- Review -->
<g id="node7" class="node"><title>Review</title>
<ellipse fill="none" stroke="black" cx="388.347" cy="-91" rx="37.8943" ry="18"/>
<text text-anchor="middle" x="388.347" y="-87.3" font-family="Times,serif" font-size="14.00">Review</text>
</g>
<!-- Comment -->
<g id="node10" class="node"><title>Comment</title>
<ellipse fill="none" stroke="black" cx="242.347" cy="-18" rx="46.2923" ry="18"/>
<text text-anchor="middle" x="242.347" y="-14.3" font-family="Times,serif" font-size="14.00">Comment</text>
</g>
<!-- Review&#45;&gt;Comment -->
<g id="edge1" class="edge"><title>Review&#45;&gt;Comment</title>
<path fill="none" stroke="#f60ed2" d="M355.588,-74.0695C332.938,-63.0546 302.769,-48.3837 279.267,-36.9543"/>
<ellipse fill="none" stroke="#f60ed2" cx="359.318" cy="-75.8834" rx="4.00002" ry="4.00002"/>
<polygon fill="#f60ed2" stroke="#f60ed2" points="278.962,-36.8062 271.937,-28.3859 274.465,-34.6195 269.969,-32.4328 269.969,-32.4328 269.969,-32.4328 274.465,-34.6195 268.001,-36.4797 278.962,-36.8062 278.962,-36.8062"/>
</g>
<!-- Question -->
<g id="node8" class="node"><title>Question</title>
<ellipse fill="none" stroke="black" cx="192.347" cy="-251" rx="42.4939" ry="18"/>
<text text-anchor="middle" x="192.347" y="-247.3" font-family="Times,serif" font-size="14.00">Question</text>
</g>
<!-- Question&#45;&gt;Answer -->
<g id="edge2" class="edge"><title>Question&#45;&gt;Answer</title>
<path fill="none" stroke="#8c22c4" d="M143.991,-244.123C123.064,-239.347 99.6774,-230.69 83.3466,-215 56.8564,-189.549 45.8793,-147.236 41.3853,-119.479"/>
<ellipse fill="none" stroke="#8c22c4" cx="147.956" cy="-244.951" rx="4.00001" ry="4.00001"/>
<polygon fill="#8c22c4" stroke="#8c22c4" points="41.3405,-119.166 44.3715,-108.628 40.6289,-114.217 39.9173,-109.268 39.9173,-109.268 39.9173,-109.268 40.6289,-114.217 35.4631,-109.909 41.3405,-119.166 41.3405,-119.166"/>
</g>
<!-- Question&#45;&gt;QuestionVote -->
<g id="edge3" class="edge"><title>Question&#45;&gt;QuestionVote</title>
<path fill="none" stroke="#0d4d6c" d="M239.907,-241.822C255.076,-236.721 270.266,-228.441 279.347,-215 298.471,-186.692 291.384,-145.802 283.356,-119.066"/>
<ellipse fill="none" stroke="#0d4d6c" cx="235.838" cy="-243.052" rx="4.00001" ry="4.00001"/>
<polygon fill="#0d4d6c" stroke="#0d4d6c" points="283.251,-118.742 284.449,-107.842 281.709,-113.986 280.168,-109.229 280.168,-109.229 280.168,-109.229 281.709,-113.986 275.887,-110.616 283.251,-118.742 283.251,-118.742"/>
</g>
<!-- User -->
<g id="node11" class="node"><title>User</title>
<ellipse fill="none" stroke="black" cx="180.347" cy="-164" rx="27.0966" ry="18"/>
<text text-anchor="middle" x="180.347" y="-160.3" font-family="Times,serif" font-size="14.00">User</text>
</g>
<!-- Question&#45;&gt;User -->
<g id="edge4" class="edge"><title>Question&#45;&gt;User</title>
<path fill="none" stroke="#065ce6" d="M141.13,-244.647C122.324,-239.913 102.841,-231.148 91.3466,-215 75.0711,-192.135 112.989,-178.425 144.28,-171.294"/>
<polygon fill="#065ce6" stroke="#065ce6" points="141.382,-244.701 150.197,-251.224 146.267,-245.764 151.153,-246.827 151.153,-246.827 151.153,-246.827 146.267,-245.764 152.11,-242.43 141.382,-244.701 141.382,-244.701"/>
<polygon fill="#065ce6" stroke="#065ce6" points="144.347,-171.279 155.063,-173.608 149.238,-170.243 154.13,-169.206 154.13,-169.206 154.13,-169.206 149.238,-170.243 153.196,-164.804 144.347,-171.279 144.347,-171.279"/>
<text text-anchor="middle" x="126.347" y="-203.8" font-family="Times,serif" font-size="14.00">voting_users</text>
</g>
<!-- Product -->
<g id="node9" class="node"><title>Product</title>
<ellipse fill="none" stroke="black" cx="326.347" cy="-345" rx="38.1938" ry="18"/>
<text text-anchor="middle" x="326.347" y="-341.3" font-family="Times,serif" font-size="14.00">Product</text>
</g>
<!-- Product&#45;&gt;Review -->
<g id="edge5" class="edge"><title>Product&#45;&gt;Review</title>
<path fill="none" stroke="#a9fddc" d="M332.452,-319.183C344.136,-271.695 369.569,-168.321 381.679,-119.1"/>
<ellipse fill="none" stroke="#a9fddc" cx="331.467" cy="-323.19" rx="4.00001" ry="4.00001"/>
<polygon fill="#a9fddc" stroke="#a9fddc" points="381.73,-118.894 388.489,-110.259 382.924,-114.039 384.119,-109.184 384.119,-109.184 384.119,-109.184 382.924,-114.039 379.749,-108.109 381.73,-118.894 381.73,-118.894"/>
</g>
<!-- Product&#45;&gt;Question -->
<g id="edge6" class="edge"><title>Product&#45;&gt;Question</title>
<path fill="none" stroke="#dfd098" d="M302.113,-323.453C294.926,-317.623 286.944,-311.397 279.347,-306 261.983,-293.664 241.816,-281.047 225.273,-271.114"/>
<ellipse fill="none" stroke="#dfd098" cx="305.363" cy="-326.122" rx="4.00002" ry="4.00002"/>
<polygon fill="#dfd098" stroke="#dfd098" points="225.089,-271.005 218.797,-262.023 220.792,-268.447 216.496,-265.89 216.496,-265.89 216.496,-265.89 220.792,-268.447 214.194,-269.757 225.089,-271.005 225.089,-271.005"/>
</g>
<!-- User&#45;&gt;Answer -->
<g id="edge10" class="edge"><title>User&#45;&gt;Answer</title>
<path fill="none" stroke="#143857" d="M151.812,-148.733C129.02,-137.337 96.9991,-121.326 72.7827,-109.218"/>
<ellipse fill="none" stroke="#143857" cx="155.51" cy="-150.582" rx="4.00002" ry="4.00002"/>
<polygon fill="#143857" stroke="#143857" points="72.5357,-109.095 65.6039,-100.597 68.0636,-106.859 63.5914,-104.622 63.5914,-104.622 63.5914,-104.622 68.0636,-106.859 61.579,-108.647 72.5357,-109.095 72.5357,-109.095"/>
</g>
<!-- User&#45;&gt;Order -->
<g id="edge11" class="edge"><title>User&#45;&gt;Order</title>
<path fill="none" stroke="#f0dadf" d="M163.761,-141.194C157.687,-133.207 150.781,-124.127 144.571,-115.962"/>
<ellipse fill="none" stroke="#f0dadf" cx="166.208" cy="-144.41" rx="4.00002" ry="4.00002"/>
<polygon fill="#f0dadf" stroke="#f0dadf" points="144.469,-115.827 141.997,-105.143 141.442,-111.847 138.415,-107.867 138.415,-107.867 138.415,-107.867 141.442,-111.847 134.833,-110.592 144.469,-115.827 144.469,-115.827"/>
</g>
<!-- User&#45;&gt;QuestionVote -->
<g id="edge12" class="edge"><title>User&#45;&gt;QuestionVote</title>
<path fill="none" stroke="#c66904" d="M204.349,-144.676C216.534,-135.373 231.435,-123.997 244.266,-114.201"/>
<ellipse fill="none" stroke="#c66904" cx="201.019" cy="-147.218" rx="4.00002" ry="4.00002"/>
<polygon fill="#c66904" stroke="#c66904" points="244.402,-114.097 255.081,-111.606 248.376,-111.063 252.351,-108.029 252.351,-108.029 252.351,-108.029 248.376,-111.063 249.62,-104.452 244.402,-114.097 244.402,-114.097"/>
</g>
<!-- User&#45;&gt;Review -->
<g id="edge8" class="edge"><title>User&#45;&gt;Review</title>
<path fill="none" stroke="#13ad11" d="M212.193,-152.72C244.936,-142.073 297.352,-124.809 342.347,-109 344.894,-108.105 347.517,-107.17 350.157,-106.22"/>
<ellipse fill="none" stroke="#13ad11" cx="208.114" cy="-154.045" rx="4.00001" ry="4.00001"/>
<polygon fill="#13ad11" stroke="#13ad11" points="350.291,-106.172 361.227,-106.982 354.99,-104.463 359.689,-102.753 359.689,-102.753 359.689,-102.753 354.99,-104.463 358.15,-98.5244 350.291,-106.172 350.291,-106.172"/>
</g>
<!-- User&#45;&gt;Question -->
<g id="edge9" class="edge"><title>User&#45;&gt;Question</title>
<path fill="none" stroke="#63f179" d="M183.92,-190.314C185.362,-200.527 187.029,-212.332 188.497,-222.734"/>
<ellipse fill="none" stroke="#63f179" cx="183.331" cy="-186.136" rx="4.00001" ry="4.00001"/>
<polygon fill="#63f179" stroke="#63f179" points="188.52,-222.897 185.462,-233.428 189.219,-227.848 189.918,-232.799 189.918,-232.799 189.918,-232.799 189.219,-227.848 194.374,-232.17 188.52,-222.897 188.52,-222.897"/>
</g>
<!-- User&#45;&gt;Question -->
<g id="edge13" class="edge"><title>User&#45;&gt;Question</title>
<path fill="none" stroke="#1ffd46" d="M185.133,-192.111C185.561,-194.774 185.973,-197.438 186.347,-200 187.426,-207.409 188.454,-215.457 189.345,-222.887"/>
<polygon fill="#1ffd46" stroke="#1ffd46" points="185.102,-191.925 187.887,-181.319 184.275,-186.994 183.449,-182.063 183.449,-182.063 183.449,-182.063 184.275,-186.994 179.011,-182.806 185.102,-191.925 185.102,-191.925"/>
<polygon fill="#1ffd46" stroke="#1ffd46" points="189.348,-222.914 186.035,-233.368 189.926,-227.881 190.504,-232.847 190.504,-232.847 190.504,-232.847 189.926,-227.881 194.974,-232.327 189.348,-222.914 189.348,-222.914"/>
<text text-anchor="middle" x="231.347" y="-203.8" font-family="Times,serif" font-size="14.00">voted_questions</text>
</g>
<!-- User&#45;&gt;Comment -->
<g id="edge7" class="edge"><title>User&#45;&gt;Comment</title>
<path fill="none" stroke="#6a5ba1" d="M184.588,-137.816C188.289,-119.3 194.615,-93.8379 204.347,-73 209.125,-62.7674 215.853,-52.4134 222.323,-43.5468"/>
<ellipse fill="none" stroke="#6a5ba1" cx="183.818" cy="-141.865" rx="4.00001" ry="4.00001"/>
<polygon fill="#6a5ba1" stroke="#6a5ba1" points="222.338,-43.5268 231.962,-38.2705 225.356,-39.5405 228.375,-35.5541 228.375,-35.5541 228.375,-35.5541 225.356,-39.5405 224.787,-32.8378 222.338,-43.5268 222.338,-43.5268"/>
</g>
</g>
</svg>
