<?xml version="1.0" encoding="UTF-8" standalone="no"?>
<!DOCTYPE svg PUBLIC "-//W3C//DTD SVG 1.1//EN"
 "http://www.w3.org/Graphics/SVG/1.1/DTD/svg11.dtd">
<!-- Generated by graphviz version 2.38.0 (20140413.2041)
 -->
<!-- Title: models_diagram Pages: 1 -->
<svg width="1255pt" height="551pt"
 viewBox="0.00 0.00 1255.34 551.00" xmlns="http://www.w3.org/2000/svg" xmlns:xlink="http://www.w3.org/1999/xlink">
<g id="graph0" class="graph" transform="scale(1 1) rotate(0) translate(4 547)">
<title>models_diagram</title>
<polygon fill="none" stroke="none" points="-4,4 -4,-547 1251.34,-547 1251.34,4 -4,4"/>
<!-- _diagram_info -->
<g id="node1" class="node"><title>_diagram_info</title>
<text text-anchor="start" x="8" y="-469.1" font-family="Times,serif" font-size="13.00">Models diagram</text>
<text text-anchor="start" x="8" y="-455.1" font-family="Times,serif" font-size="13.00">Date: Apr 27 2017 &#45; 18:24</text>
<text text-anchor="start" x="8" y="-441.1" font-family="Times,serif" font-size="13.00">Migration version: 20170427211947</text>
<text text-anchor="start" x="8" y="-427.1" font-family="Times,serif" font-size="13.00">Generated by RailRoady 1.5.2</text>
<text text-anchor="start" x="8" y="-413.1" font-family="Times,serif" font-size="13.00">http://railroady.prestonlee.com</text>
</g>
<!-- Answer -->
<g id="node2" class="node"><title>Answer</title>
<path fill="none" stroke="black" d="M365,-0.5C365,-0.5 585,-0.5 585,-0.5 591,-0.5 597,-6.5 597,-12.5 597,-12.5 597,-124.5 597,-124.5 597,-130.5 591,-136.5 585,-136.5 585,-136.5 365,-136.5 365,-136.5 359,-136.5 353,-130.5 353,-124.5 353,-124.5 353,-12.5 353,-12.5 353,-6.5 359,-0.5 365,-0.5"/>
<text text-anchor="middle" x="475" y="-121.3" font-family="Times,serif" font-size="14.00">Answer</text>
<polyline fill="none" stroke="black" points="353,-113.5 597,-113.5 "/>
<text text-anchor="start" x="361" y="-98.3" font-family="Times,serif" font-size="14.00">id :integer</text>
<text text-anchor="start" x="361" y="-83.3" font-family="Times,serif" font-size="14.00">content :text</text>
<text text-anchor="start" x="361" y="-68.3" font-family="Times,serif" font-size="14.00">created_at :timestamp without time zone</text>
<text text-anchor="start" x="361" y="-53.3" font-family="Times,serif" font-size="14.00">updated_at :timestamp without time zone</text>
<text text-anchor="start" x="361" y="-38.3" font-family="Times,serif" font-size="14.00">question_id :integer</text>
<text text-anchor="start" x="361" y="-23.3" font-family="Times,serif" font-size="14.00">user_id :integer</text>
<text text-anchor="start" x="361" y="-8.3" font-family="Times,serif" font-size="14.00">score :integer</text>
</g>
<!-- Order -->
<g id="node3" class="node"><title>Order</title>
<path fill="none" stroke="black" d="M169,-188.5C169,-188.5 389,-188.5 389,-188.5 395,-188.5 401,-194.5 401,-200.5 401,-200.5 401,-282.5 401,-282.5 401,-288.5 395,-294.5 389,-294.5 389,-294.5 169,-294.5 169,-294.5 163,-294.5 157,-288.5 157,-282.5 157,-282.5 157,-200.5 157,-200.5 157,-194.5 163,-188.5 169,-188.5"/>
<text text-anchor="middle" x="279" y="-279.3" font-family="Times,serif" font-size="14.00">Order</text>
<polyline fill="none" stroke="black" points="157,-271.5 401,-271.5 "/>
<text text-anchor="start" x="165" y="-256.3" font-family="Times,serif" font-size="14.00">id :integer</text>
<text text-anchor="start" x="165" y="-241.3" font-family="Times,serif" font-size="14.00">created_at :timestamp without time zone</text>
<text text-anchor="start" x="165" y="-226.3" font-family="Times,serif" font-size="14.00">updated_at :timestamp without time zone</text>
<text text-anchor="start" x="165" y="-211.3" font-family="Times,serif" font-size="14.00">user_id :integer</text>
<text text-anchor="start" x="165" y="-196.3" font-family="Times,serif" font-size="14.00">status :integer</text>
</g>
<!-- QuestionVote -->
<g id="node4" class="node"><title>QuestionVote</title>
<path fill="none" stroke="black" d="M65,-15.5C65,-15.5 285,-15.5 285,-15.5 291,-15.5 297,-21.5 297,-27.5 297,-27.5 297,-109.5 297,-109.5 297,-115.5 291,-121.5 285,-121.5 285,-121.5 65,-121.5 65,-121.5 59,-121.5 53,-115.5 53,-109.5 53,-109.5 53,-27.5 53,-27.5 53,-21.5 59,-15.5 65,-15.5"/>
<text text-anchor="middle" x="175" y="-106.3" font-family="Times,serif" font-size="14.00">QuestionVote</text>
<polyline fill="none" stroke="black" points="53,-98.5 297,-98.5 "/>
<text text-anchor="start" x="61" y="-83.3" font-family="Times,serif" font-size="14.00">id :integer</text>
<text text-anchor="start" x="61" y="-68.3" font-family="Times,serif" font-size="14.00">created_at :timestamp without time zone</text>
<text text-anchor="start" x="61" y="-53.3" font-family="Times,serif" font-size="14.00">updated_at :timestamp without time zone</text>
<text text-anchor="start" x="61" y="-38.3" font-family="Times,serif" font-size="14.00">user_id :integer</text>
<text text-anchor="start" x="61" y="-23.3" font-family="Times,serif" font-size="14.00">question_id :integer</text>
</g>
<!-- Tag -->
<g id="node5" class="node"><title>Tag</title>
<path fill="none" stroke="black" d="M843,-399C843,-399 1063,-399 1063,-399 1069,-399 1075,-405 1075,-411 1075,-411 1075,-478 1075,-478 1075,-484 1069,-490 1063,-490 1063,-490 843,-490 843,-490 837,-490 831,-484 831,-478 831,-478 831,-411 831,-411 831,-405 837,-399 843,-399"/>
<text text-anchor="middle" x="953" y="-474.8" font-family="Times,serif" font-size="14.00">Tag</text>
<polyline fill="none" stroke="black" points="831,-467 1075,-467 "/>
<text text-anchor="start" x="839" y="-451.8" font-family="Times,serif" font-size="14.00">id :integer</text>
<text text-anchor="start" x="839" y="-436.8" font-family="Times,serif" font-size="14.00">name :character varying</text>
<text text-anchor="start" x="839" y="-421.8" font-family="Times,serif" font-size="14.00">created_at :timestamp without time zone</text>
<text text-anchor="start" x="839" y="-406.8" font-family="Times,serif" font-size="14.00">updated_at :timestamp without time zone</text>
</g>
<!-- ApplicationRecord -->
<g id="node6" class="node"><title>ApplicationRecord</title>
<ellipse fill="none" stroke="black" cx="1170" cy="-444.5" rx="77.1866" ry="18"/>
<text text-anchor="middle" x="1170" y="-440.8" font-family="Times,serif" font-size="14.00">ApplicationRecord</text>
</g>
<!-- Review -->
<g id="node7" class="node"><title>Review</title>
<path fill="none" stroke="black" d="M731,-173.5C731,-173.5 951,-173.5 951,-173.5 957,-173.5 963,-179.5 963,-185.5 963,-185.5 963,-297.5 963,-297.5 963,-303.5 957,-309.5 951,-309.5 951,-309.5 731,-309.5 731,-309.5 725,-309.5 719,-303.5 719,-297.5 719,-297.5 719,-185.5 719,-185.5 719,-179.5 725,-173.5 731,-173.5"/>
<text text-anchor="middle" x="841" y="-294.3" font-family="Times,serif" font-size="14.00">Review</text>
<polyline fill="none" stroke="black" points="719,-286.5 963,-286.5 "/>
<text text-anchor="start" x="727" y="-271.3" font-family="Times,serif" font-size="14.00">id :integer</text>
<text text-anchor="start" x="727" y="-256.3" font-family="Times,serif" font-size="14.00">content :text</text>
<text text-anchor="start" x="727" y="-241.3" font-family="Times,serif" font-size="14.00">score :double precision</text>
<text text-anchor="start" x="727" y="-226.3" font-family="Times,serif" font-size="14.00">created_at :timestamp without time zone</text>
<text text-anchor="start" x="727" y="-211.3" font-family="Times,serif" font-size="14.00">updated_at :timestamp without time zone</text>
<text text-anchor="start" x="727" y="-196.3" font-family="Times,serif" font-size="14.00">user_id :integer</text>
<text text-anchor="start" x="727" y="-181.3" font-family="Times,serif" font-size="14.00">product_id :integer</text>
</g>
<!-- Comment -->
<g id="node10" class="node"><title>Comment</title>
<path fill="none" stroke="black" d="M646,-8C646,-8 866,-8 866,-8 872,-8 878,-14 878,-20 878,-20 878,-117 878,-117 878,-123 872,-129 866,-129 866,-129 646,-129 646,-129 640,-129 634,-123 634,-117 634,-117 634,-20 634,-20 634,-14 640,-8 646,-8"/>
<text text-anchor="middle" x="756" y="-113.8" font-family="Times,serif" font-size="14.00">Comment</text>
<polyline fill="none" stroke="black" points="634,-106 878,-106 "/>
<text text-anchor="start" x="642" y="-90.8" font-family="Times,serif" font-size="14.00">id :integer</text>
<text text-anchor="start" x="642" y="-75.8" font-family="Times,serif" font-size="14.00">content :text</text>
<text text-anchor="start" x="642" y="-60.8" font-family="Times,serif" font-size="14.00">created_at :timestamp without time zone</text>
<text text-anchor="start" x="642" y="-45.8" font-family="Times,serif" font-size="14.00">updated_at :timestamp without time zone</text>
<text text-anchor="start" x="642" y="-30.8" font-family="Times,serif" font-size="14.00">user_id :integer</text>
<text text-anchor="start" x="642" y="-15.8" font-family="Times,serif" font-size="14.00">review_id :integer</text>
</g>
<!-- Review&#45;&gt;Comment -->
<g id="edge1" class="edge"><title>Review&#45;&gt;Comment</title>
<path fill="none" stroke="#39aa66" d="M804.052,-166.17C799.442,-156.895 794.743,-147.441 790.177,-138.256"/>
<ellipse fill="none" stroke="#39aa66" cx="805.869" cy="-169.825" rx="4.00002" ry="4.00002"/>
<polygon fill="#39aa66" stroke="#39aa66" points="790.115,-138.131 789.693,-127.173 787.889,-133.654 785.664,-129.176 785.664,-129.176 785.664,-129.176 787.889,-133.654 781.634,-131.179 790.115,-138.131 790.115,-138.131"/>
</g>
<!-- Question -->
<g id="node8" class="node"><title>Question</title>
<path fill="none" stroke="black" d="M431,-173.5C431,-173.5 651,-173.5 651,-173.5 657,-173.5 663,-179.5 663,-185.5 663,-185.5 663,-297.5 663,-297.5 663,-303.5 657,-309.5 651,-309.5 651,-309.5 431,-309.5 431,-309.5 425,-309.5 419,-303.5 419,-297.5 419,-297.5 419,-185.5 419,-185.5 419,-179.5 425,-173.5 431,-173.5"/>
<text text-anchor="middle" x="541" y="-294.3" font-family="Times,serif" font-size="14.00">Question</text>
<polyline fill="none" stroke="black" points="419,-286.5 663,-286.5 "/>
<text text-anchor="start" x="427" y="-271.3" font-family="Times,serif" font-size="14.00">id :integer</text>
<text text-anchor="start" x="427" y="-256.3" font-family="Times,serif" font-size="14.00">content :text</text>
<text text-anchor="start" x="427" y="-241.3" font-family="Times,serif" font-size="14.00">created_at :timestamp without time zone</text>
<text text-anchor="start" x="427" y="-226.3" font-family="Times,serif" font-size="14.00">updated_at :timestamp without time zone</text>
<text text-anchor="start" x="427" y="-211.3" font-family="Times,serif" font-size="14.00">user_id :integer</text>
<text text-anchor="start" x="427" y="-196.3" font-family="Times,serif" font-size="14.00">product_id :integer</text>
<text text-anchor="start" x="427" y="-181.3" font-family="Times,serif" font-size="14.00">score :integer</text>
</g>
<!-- Question&#45;&gt;Answer -->
<g id="edge2" class="edge"><title>Question&#45;&gt;Answer</title>
<path fill="none" stroke="#806b83" d="M512.134,-165.71C509.629,-159.22 507.092,-152.647 504.581,-146.142"/>
<ellipse fill="none" stroke="#806b83" cx="513.664" cy="-169.675" rx="4.00001" ry="4.00001"/>
<polygon fill="#806b83" stroke="#806b83" points="504.53,-146.009 505.127,-135.06 502.73,-141.345 500.929,-136.68 500.929,-136.68 500.929,-136.68 502.73,-141.345 496.731,-138.3 504.53,-146.009 504.53,-146.009"/>
</g>
<!-- Question&#45;&gt;QuestionVote -->
<g id="edge3" class="edge"><title>Question&#45;&gt;QuestionVote</title>
<path fill="none" stroke="#540265" d="M411.355,-173.648C410.903,-173.431 410.451,-173.215 410,-173 376.719,-157.115 340.408,-140.689 306.501,-125.73"/>
<ellipse fill="none" stroke="#540265" cx="415.137" cy="-175.47" rx="4.00002" ry="4.00002"/>
<polygon fill="#540265" stroke="#540265" points="306.159,-125.579 298.819,-117.432 301.583,-123.565 297.006,-121.551 297.006,-121.551 297.006,-121.551 301.583,-123.565 295.194,-125.67 306.159,-125.579 306.159,-125.579"/>
</g>
<!-- Product -->
<g id="node9" class="node"><title>Product</title>
<path fill="none" stroke="black" d="M581,-369C581,-369 801,-369 801,-369 807,-369 813,-375 813,-381 813,-381 813,-508 813,-508 813,-514 807,-520 801,-520 801,-520 581,-520 581,-520 575,-520 569,-514 569,-508 569,-508 569,-381 569,-381 569,-375 575,-369 581,-369"/>
<text text-anchor="middle" x="691" y="-504.8" font-family="Times,serif" font-size="14.00">Product</text>
<polyline fill="none" stroke="black" points="569,-497 813,-497 "/>
<text text-anchor="start" x="577" y="-481.8" font-family="Times,serif" font-size="14.00">id :integer</text>
<text text-anchor="start" x="577" y="-466.8" font-family="Times,serif" font-size="14.00">name :character varying</text>
<text text-anchor="start" x="577" y="-451.8" font-family="Times,serif" font-size="14.00">description :text</text>
<text text-anchor="start" x="577" y="-436.8" font-family="Times,serif" font-size="14.00">details :text</text>
<text text-anchor="start" x="577" y="-421.8" font-family="Times,serif" font-size="14.00">prize :integer</text>
<text text-anchor="start" x="577" y="-406.8" font-family="Times,serif" font-size="14.00">stock :integer</text>
<text text-anchor="start" x="577" y="-391.8" font-family="Times,serif" font-size="14.00">created_at :timestamp without time zone</text>
<text text-anchor="start" x="577" y="-376.8" font-family="Times,serif" font-size="14.00">updated_at :timestamp without time zone</text>
</g>
<!-- Product&#45;&gt;Review -->
<g id="edge4" class="edge"><title>Product&#45;&gt;Review</title>
<path fill="none" stroke="#5e00f7" d="M751.436,-362.516C762.487,-347.708 773.976,-332.312 784.894,-317.681"/>
<ellipse fill="none" stroke="#5e00f7" cx="749.034" cy="-365.735" rx="4.00002" ry="4.00002"/>
<polygon fill="#5e00f7" stroke="#5e00f7" points="784.914,-317.655 794.501,-312.332 787.905,-313.648 790.895,-309.641 790.895,-309.641 790.895,-309.641 787.905,-313.648 787.289,-306.949 784.914,-317.655 784.914,-317.655"/>
</g>
<!-- Product&#45;&gt;Question -->
<g id="edge5" class="edge"><title>Product&#45;&gt;Question</title>
<path fill="none" stroke="#239206" d="M630.564,-362.516C619.513,-347.708 608.024,-332.312 597.106,-317.681"/>
<ellipse fill="none" stroke="#239206" cx="632.966" cy="-365.735" rx="4.00002" ry="4.00002"/>
<polygon fill="#239206" stroke="#239206" points="597.086,-317.655 594.711,-306.949 594.095,-313.648 591.105,-309.641 591.105,-309.641 591.105,-309.641 594.095,-313.648 587.499,-312.332 597.086,-317.655 597.086,-317.655"/>
</g>
<!-- User -->
<g id="node11" class="node"><title>User</title>
<path fill="none" stroke="black" d="M244,-346.5C244,-346.5 464,-346.5 464,-346.5 470,-346.5 476,-352.5 476,-358.5 476,-358.5 476,-530.5 476,-530.5 476,-536.5 470,-542.5 464,-542.5 464,-542.5 244,-542.5 244,-542.5 238,-542.5 232,-536.5 232,-530.5 232,-530.5 232,-358.5 232,-358.5 232,-352.5 238,-346.5 244,-346.5"/>
<text text-anchor="middle" x="354" y="-527.3" font-family="Times,serif" font-size="14.00">User</text>
<polyline fill="none" stroke="black" points="232,-519.5 476,-519.5 "/>
<text text-anchor="start" x="240" y="-504.3" font-family="Times,serif" font-size="14.00">id :integer</text>
<text text-anchor="start" x="240" y="-489.3" font-family="Times,serif" font-size="14.00">email :character varying</text>
<text text-anchor="start" x="240" y="-474.3" font-family="Times,serif" font-size="14.00">username :character varying</text>
<text text-anchor="start" x="240" y="-459.3" font-family="Times,serif" font-size="14.00">name :character varying</text>
<text text-anchor="start" x="240" y="-444.3" font-family="Times,serif" font-size="14.00">last_name :character varying</text>
<text text-anchor="start" x="240" y="-429.3" font-family="Times,serif" font-size="14.00">address :character varying</text>
<text text-anchor="start" x="240" y="-414.3" font-family="Times,serif" font-size="14.00">phone_number :character varying</text>
<text text-anchor="start" x="240" y="-399.3" font-family="Times,serif" font-size="14.00">is_admin :boolean</text>
<text text-anchor="start" x="240" y="-384.3" font-family="Times,serif" font-size="14.00">created_at :timestamp without time zone</text>
<text text-anchor="start" x="240" y="-369.3" font-family="Times,serif" font-size="14.00">updated_at :timestamp without time zone</text>
<text text-anchor="start" x="240" y="-354.3" font-family="Times,serif" font-size="14.00">password :character varying</text>
</g>
<!-- User&#45;&gt;Answer -->
<g id="edge9" class="edge"><title>User&#45;&gt;Answer</title>
<path fill="none" stroke="#b4c94b" d="M224.913,-347.162C224.275,-346.772 223.637,-346.385 223,-346 191.357,-326.874 167.692,-341.295 148,-310 115.572,-258.465 110.027,-220.598 148,-173 192.916,-116.699 237.238,-158.422 306,-137 318.139,-133.218 330.637,-128.958 343.082,-124.462"/>
<ellipse fill="none" stroke="#b4c94b" cx="228.373" cy="-349.309" rx="4.00002" ry="4.00002"/>
<polygon fill="#b4c94b" stroke="#b4c94b" points="343.192,-124.422 354.13,-125.208 347.887,-122.702 352.582,-120.982 352.582,-120.982 352.582,-120.982 347.887,-122.702 351.034,-116.757 343.192,-124.422 343.192,-124.422"/>
</g>
<!-- User&#45;&gt;Order -->
<g id="edge10" class="edge"><title>User&#45;&gt;Order</title>
<path fill="none" stroke="#2ad678" d="M314.9,-338.712C310.478,-326.86 306.085,-315.088 301.969,-304.057"/>
<ellipse fill="none" stroke="#2ad678" cx="316.31" cy="-342.491" rx="4.00001" ry="4.00001"/>
<polygon fill="#2ad678" stroke="#2ad678" points="301.925,-303.939 302.645,-292.997 300.177,-299.254 298.429,-294.57 298.429,-294.57 298.429,-294.57 300.177,-299.254 294.213,-296.143 301.925,-303.939 301.925,-303.939"/>
</g>
<!-- User&#45;&gt;QuestionVote -->
<g id="edge11" class="edge"><title>User&#45;&gt;QuestionVote</title>
<path fill="none" stroke="#089530" d="M224.624,-346.859C224.083,-346.571 223.541,-346.284 223,-346 178.952,-322.865 145.978,-350.445 117,-310 79.0465,-257.027 106.453,-182.369 135.078,-130.336"/>
<ellipse fill="none" stroke="#089530" cx="228.161" cy="-348.798" rx="4.00002" ry="4.00002"/>
<polygon fill="#089530" stroke="#089530" points="135.127,-130.248 143.964,-123.754 137.587,-125.894 140.046,-121.541 140.046,-121.541 140.046,-121.541 137.587,-125.894 136.127,-119.328 135.127,-130.248 135.127,-130.248"/>
</g>
<!-- User&#45;&gt;Review -->
<g id="edge7" class="edge"><title>User&#45;&gt;Review</title>
<path fill="none" stroke="#621a1e" d="M483.584,-377.399C508.572,-366.021 534.816,-354.985 560,-346 622.54,-323.687 642.671,-332.895 705,-310 706.43,-309.475 707.866,-308.938 709.305,-308.392"/>
<ellipse fill="none" stroke="#621a1e" cx="479.859" cy="-379.108" rx="4.00002" ry="4.00002"/>
<polygon fill="#621a1e" stroke="#621a1e" points="709.537,-308.301 720.49,-308.842 714.192,-306.477 718.847,-304.652 718.847,-304.652 718.847,-304.652 714.192,-306.477 717.205,-300.462 709.537,-308.301 709.537,-308.301"/>
</g>
<!-- User&#45;&gt;Question -->
<g id="edge8" class="edge"><title>User&#45;&gt;Question</title>
<path fill="none" stroke="#3cd48e" d="M450.179,-340.121C457.427,-332.329 464.654,-324.562 471.685,-317.004"/>
<ellipse fill="none" stroke="#3cd48e" cx="447.212" cy="-343.31" rx="4.00002" ry="4.00002"/>
<polygon fill="#3cd48e" stroke="#3cd48e" points="471.833,-316.845 481.939,-312.589 475.239,-313.185 478.644,-309.524 478.644,-309.524 478.644,-309.524 475.239,-313.185 475.35,-306.459 471.833,-316.845 471.833,-316.845"/>
</g>
<!-- User&#45;&gt;Comment -->
<g id="edge6" class="edge"><title>User&#45;&gt;Comment</title>
<path fill="none" stroke="#96750c" d="M483.598,-379.007C508.689,-367.421 534.966,-355.898 560,-346 608.623,-326.775 635.783,-347.712 672,-310 715.768,-264.426 688.666,-232.477 710,-173 714.046,-161.721 718.772,-149.947 723.625,-138.553"/>
<ellipse fill="none" stroke="#96750c" cx="479.833" cy="-380.754" rx="4.00002" ry="4.00002"/>
<polygon fill="#96750c" stroke="#96750c" points="723.748,-138.269 731.849,-130.878 725.734,-133.68 727.72,-129.091 727.72,-129.091 727.72,-129.091 725.734,-133.68 723.59,-127.304 723.748,-138.269 723.748,-138.269"/>
</g>
</g>
</svg>
