<?xml version="1.0" encoding="UTF-8" standalone="no"?>
<!DOCTYPE svg PUBLIC "-//W3C//DTD SVG 1.1//EN"
 "http://www.w3.org/Graphics/SVG/1.1/DTD/svg11.dtd">
<!-- Generated by graphviz version 2.38.0 (20140413.2041)
 -->
<!-- Title: models_diagram Pages: 1 -->
<svg width="1243pt" height="900pt"
 viewBox="0.00 0.00 1243.34 900.00" xmlns="http://www.w3.org/2000/svg" xmlns:xlink="http://www.w3.org/1999/xlink">
<g id="graph0" class="graph" transform="scale(1 1) rotate(0) translate(4 896)">
<title>models_diagram</title>
<polygon fill="none" stroke="none" points="-4,4 -4,-896 1239.34,-896 1239.34,4 -4,4"/>
<!-- _diagram_info -->
<g id="node1" class="node"><title>_diagram_info</title>
<text text-anchor="start" x="333" y="-840.6" font-family="Times,serif" font-size="13.00">Models diagram</text>
<text text-anchor="start" x="333" y="-826.6" font-family="Times,serif" font-size="13.00">Date: Apr 27 2017 &#45; 19:39</text>
<text text-anchor="start" x="333" y="-812.6" font-family="Times,serif" font-size="13.00">Migration version: 20170427221613</text>
<text text-anchor="start" x="333" y="-798.6" font-family="Times,serif" font-size="13.00">Generated by RailRoady 1.5.2</text>
<text text-anchor="start" x="333" y="-784.6" font-family="Times,serif" font-size="13.00">http://railroady.prestonlee.com</text>
</g>
<!-- Answer -->
<g id="node2" class="node"><title>Answer</title>
<path fill="none" stroke="black" d="M12,-159.5C12,-159.5 232,-159.5 232,-159.5 238,-159.5 244,-165.5 244,-171.5 244,-171.5 244,-283.5 244,-283.5 244,-289.5 238,-295.5 232,-295.5 232,-295.5 12,-295.5 12,-295.5 6,-295.5 0,-289.5 0,-283.5 0,-283.5 0,-171.5 0,-171.5 0,-165.5 6,-159.5 12,-159.5"/>
<text text-anchor="middle" x="122" y="-280.3" font-family="Times,serif" font-size="14.00">Answer</text>
<polyline fill="none" stroke="black" points="0,-272.5 244,-272.5 "/>
<text text-anchor="start" x="8" y="-257.3" font-family="Times,serif" font-size="14.00">id :integer</text>
<text text-anchor="start" x="8" y="-242.3" font-family="Times,serif" font-size="14.00">content :text</text>
<text text-anchor="start" x="8" y="-227.3" font-family="Times,serif" font-size="14.00">created_at :timestamp without time zone</text>
<text text-anchor="start" x="8" y="-212.3" font-family="Times,serif" font-size="14.00">updated_at :timestamp without time zone</text>
<text text-anchor="start" x="8" y="-197.3" font-family="Times,serif" font-size="14.00">question_id :integer</text>
<text text-anchor="start" x="8" y="-182.3" font-family="Times,serif" font-size="14.00">user_id :integer</text>
<text text-anchor="start" x="8" y="-167.3" font-family="Times,serif" font-size="14.00">score :integer</text>
</g>
<!-- Order -->
<g id="node3" class="node"><title>Order</title>
<path fill="none" stroke="black" d="M274,-174.5C274,-174.5 494,-174.5 494,-174.5 500,-174.5 506,-180.5 506,-186.5 506,-186.5 506,-268.5 506,-268.5 506,-274.5 500,-280.5 494,-280.5 494,-280.5 274,-280.5 274,-280.5 268,-280.5 262,-274.5 262,-268.5 262,-268.5 262,-186.5 262,-186.5 262,-180.5 268,-174.5 274,-174.5"/>
<text text-anchor="middle" x="384" y="-265.3" font-family="Times,serif" font-size="14.00">Order</text>
<polyline fill="none" stroke="black" points="262,-257.5 506,-257.5 "/>
<text text-anchor="start" x="270" y="-242.3" font-family="Times,serif" font-size="14.00">id :integer</text>
<text text-anchor="start" x="270" y="-227.3" font-family="Times,serif" font-size="14.00">created_at :timestamp without time zone</text>
<text text-anchor="start" x="270" y="-212.3" font-family="Times,serif" font-size="14.00">updated_at :timestamp without time zone</text>
<text text-anchor="start" x="270" y="-197.3" font-family="Times,serif" font-size="14.00">user_id :integer</text>
<text text-anchor="start" x="270" y="-182.3" font-family="Times,serif" font-size="14.00">status :integer</text>
</g>
<!-- QuestionVote -->
<g id="node4" class="node"><title>QuestionVote</title>
<path fill="none" stroke="black" d="M574,-167C574,-167 794,-167 794,-167 800,-167 806,-173 806,-179 806,-179 806,-276 806,-276 806,-282 800,-288 794,-288 794,-288 574,-288 574,-288 568,-288 562,-282 562,-276 562,-276 562,-179 562,-179 562,-173 568,-167 574,-167"/>
<text text-anchor="middle" x="684" y="-272.8" font-family="Times,serif" font-size="14.00">QuestionVote</text>
<polyline fill="none" stroke="black" points="562,-265 806,-265 "/>
<text text-anchor="start" x="570" y="-249.8" font-family="Times,serif" font-size="14.00">id :integer</text>
<text text-anchor="start" x="570" y="-234.8" font-family="Times,serif" font-size="14.00">created_at :timestamp without time zone</text>
<text text-anchor="start" x="570" y="-219.8" font-family="Times,serif" font-size="14.00">updated_at :timestamp without time zone</text>
<text text-anchor="start" x="570" y="-204.8" font-family="Times,serif" font-size="14.00">user_id :integer</text>
<text text-anchor="start" x="570" y="-189.8" font-family="Times,serif" font-size="14.00">question_id :integer</text>
<text text-anchor="start" x="570" y="-174.8" font-family="Times,serif" font-size="14.00">delta :integer</text>
</g>
<!-- Tag -->
<g id="node5" class="node"><title>Tag</title>
<path fill="none" stroke="black" d="M831,-770.5C831,-770.5 1051,-770.5 1051,-770.5 1057,-770.5 1063,-776.5 1063,-782.5 1063,-782.5 1063,-849.5 1063,-849.5 1063,-855.5 1057,-861.5 1051,-861.5 1051,-861.5 831,-861.5 831,-861.5 825,-861.5 819,-855.5 819,-849.5 819,-849.5 819,-782.5 819,-782.5 819,-776.5 825,-770.5 831,-770.5"/>
<text text-anchor="middle" x="941" y="-846.3" font-family="Times,serif" font-size="14.00">Tag</text>
<polyline fill="none" stroke="black" points="819,-838.5 1063,-838.5 "/>
<text text-anchor="start" x="827" y="-823.3" font-family="Times,serif" font-size="14.00">id :integer</text>
<text text-anchor="start" x="827" y="-808.3" font-family="Times,serif" font-size="14.00">name :character varying</text>
<text text-anchor="start" x="827" y="-793.3" font-family="Times,serif" font-size="14.00">created_at :timestamp without time zone</text>
<text text-anchor="start" x="827" y="-778.3" font-family="Times,serif" font-size="14.00">updated_at :timestamp without time zone</text>
</g>
<!-- ApplicationRecord -->
<g id="node6" class="node"><title>ApplicationRecord</title>
<ellipse fill="none" stroke="black" cx="1158" cy="-816" rx="77.1866" ry="18"/>
<text text-anchor="middle" x="1158" y="-812.3" font-family="Times,serif" font-size="14.00">ApplicationRecord</text>
</g>
<!-- Review -->
<g id="node7" class="node"><title>Review</title>
<path fill="none" stroke="black" d="M836,-159.5C836,-159.5 1056,-159.5 1056,-159.5 1062,-159.5 1068,-165.5 1068,-171.5 1068,-171.5 1068,-283.5 1068,-283.5 1068,-289.5 1062,-295.5 1056,-295.5 1056,-295.5 836,-295.5 836,-295.5 830,-295.5 824,-289.5 824,-283.5 824,-283.5 824,-171.5 824,-171.5 824,-165.5 830,-159.5 836,-159.5"/>
<text text-anchor="middle" x="946" y="-280.3" font-family="Times,serif" font-size="14.00">Review</text>
<polyline fill="none" stroke="black" points="824,-272.5 1068,-272.5 "/>
<text text-anchor="start" x="832" y="-257.3" font-family="Times,serif" font-size="14.00">id :integer</text>
<text text-anchor="start" x="832" y="-242.3" font-family="Times,serif" font-size="14.00">content :text</text>
<text text-anchor="start" x="832" y="-227.3" font-family="Times,serif" font-size="14.00">score :double precision</text>
<text text-anchor="start" x="832" y="-212.3" font-family="Times,serif" font-size="14.00">created_at :timestamp without time zone</text>
<text text-anchor="start" x="832" y="-197.3" font-family="Times,serif" font-size="14.00">updated_at :timestamp without time zone</text>
<text text-anchor="start" x="832" y="-182.3" font-family="Times,serif" font-size="14.00">user_id :integer</text>
<text text-anchor="start" x="832" y="-167.3" font-family="Times,serif" font-size="14.00">product_id :integer</text>
</g>
<!-- Comment -->
<g id="node10" class="node"><title>Comment</title>
<path fill="none" stroke="black" d="M533,-0.5C533,-0.5 753,-0.5 753,-0.5 759,-0.5 765,-6.5 765,-12.5 765,-12.5 765,-109.5 765,-109.5 765,-115.5 759,-121.5 753,-121.5 753,-121.5 533,-121.5 533,-121.5 527,-121.5 521,-115.5 521,-109.5 521,-109.5 521,-12.5 521,-12.5 521,-6.5 527,-0.5 533,-0.5"/>
<text text-anchor="middle" x="643" y="-106.3" font-family="Times,serif" font-size="14.00">Comment</text>
<polyline fill="none" stroke="black" points="521,-98.5 765,-98.5 "/>
<text text-anchor="start" x="529" y="-83.3" font-family="Times,serif" font-size="14.00">id :integer</text>
<text text-anchor="start" x="529" y="-68.3" font-family="Times,serif" font-size="14.00">content :text</text>
<text text-anchor="start" x="529" y="-53.3" font-family="Times,serif" font-size="14.00">created_at :timestamp without time zone</text>
<text text-anchor="start" x="529" y="-38.3" font-family="Times,serif" font-size="14.00">updated_at :timestamp without time zone</text>
<text text-anchor="start" x="529" y="-23.3" font-family="Times,serif" font-size="14.00">user_id :integer</text>
<text text-anchor="start" x="529" y="-8.3" font-family="Times,serif" font-size="14.00">review_id :integer</text>
</g>
<!-- Review&#45;&gt;Comment -->
<g id="edge1" class="edge"><title>Review&#45;&gt;Comment</title>
<path fill="none" stroke="#72ec97" d="M816.448,-156.166C798.18,-146.248 779.478,-136.094 761.433,-126.298"/>
<ellipse fill="none" stroke="#72ec97" cx="820.116" cy="-158.157" rx="4.00002" ry="4.00002"/>
<polygon fill="#72ec97" stroke="#72ec97" points="761.421,-126.291 754.78,-117.565 757.027,-123.906 752.633,-121.52 752.633,-121.52 752.633,-121.52 757.027,-123.906 750.485,-125.475 761.421,-126.291 761.421,-126.291"/>
</g>
<!-- Question -->
<g id="node8" class="node"><title>Question</title>
<path fill="none" stroke="black" d="M451,-581.5C451,-581.5 671,-581.5 671,-581.5 677,-581.5 683,-587.5 683,-593.5 683,-593.5 683,-690.5 683,-690.5 683,-696.5 677,-702.5 671,-702.5 671,-702.5 451,-702.5 451,-702.5 445,-702.5 439,-696.5 439,-690.5 439,-690.5 439,-593.5 439,-593.5 439,-587.5 445,-581.5 451,-581.5"/>
<text text-anchor="middle" x="561" y="-687.3" font-family="Times,serif" font-size="14.00">Question</text>
<polyline fill="none" stroke="black" points="439,-679.5 683,-679.5 "/>
<text text-anchor="start" x="447" y="-664.3" font-family="Times,serif" font-size="14.00">id :integer</text>
<text text-anchor="start" x="447" y="-649.3" font-family="Times,serif" font-size="14.00">content :text</text>
<text text-anchor="start" x="447" y="-634.3" font-family="Times,serif" font-size="14.00">created_at :timestamp without time zone</text>
<text text-anchor="start" x="447" y="-619.3" font-family="Times,serif" font-size="14.00">updated_at :timestamp without time zone</text>
<text text-anchor="start" x="447" y="-604.3" font-family="Times,serif" font-size="14.00">user_id :integer</text>
<text text-anchor="start" x="447" y="-589.3" font-family="Times,serif" font-size="14.00">product_id :integer</text>
</g>
<!-- Question&#45;&gt;Answer -->
<g id="edge2" class="edge"><title>Question&#45;&gt;Answer</title>
<path fill="none" stroke="#7c5dc5" d="M462.581,-576.622C442.283,-562.043 421.477,-546.092 403,-530 321.594,-459.104 238.545,-367.057 184.062,-303.412"/>
<ellipse fill="none" stroke="#7c5dc5" cx="465.893" cy="-578.984" rx="4.00002" ry="4.00002"/>
<polygon fill="#7c5dc5" stroke="#7c5dc5" points="184.053,-303.401 180.984,-292.873 180.807,-299.598 177.561,-295.794 177.561,-295.794 177.561,-295.794 180.807,-299.598 174.138,-298.715 184.053,-303.401 184.053,-303.401"/>
</g>
<!-- Question&#45;&gt;QuestionVote -->
<g id="edge3" class="edge"><title>Question&#45;&gt;QuestionVote</title>
<path fill="none" stroke="#9cfa6d" d="M641.191,-575.266C644.67,-571.267 647.967,-567.169 651,-563 660.373,-550.117 661.336,-545.505 665,-530 683.426,-452.036 686.628,-359.772 686.213,-298.028"/>
<ellipse fill="none" stroke="#9cfa6d" cx="638.266" cy="-578.501" rx="4.00002" ry="4.00002"/>
<polygon fill="#9cfa6d" stroke="#9cfa6d" points="686.213,-298.007 690.612,-287.963 686.163,-293.008 686.112,-288.008 686.112,-288.008 686.112,-288.008 686.163,-293.008 681.613,-288.053 686.213,-298.007 686.213,-298.007"/>
</g>
<!-- User -->
<g id="node11" class="node"><title>User</title>
<path fill="none" stroke="black" d="M424,-333.5C424,-333.5 644,-333.5 644,-333.5 650,-333.5 656,-339.5 656,-345.5 656,-345.5 656,-517.5 656,-517.5 656,-523.5 650,-529.5 644,-529.5 644,-529.5 424,-529.5 424,-529.5 418,-529.5 412,-523.5 412,-517.5 412,-517.5 412,-345.5 412,-345.5 412,-339.5 418,-333.5 424,-333.5"/>
<text text-anchor="middle" x="534" y="-514.3" font-family="Times,serif" font-size="14.00">User</text>
<polyline fill="none" stroke="black" points="412,-506.5 656,-506.5 "/>
<text text-anchor="start" x="420" y="-491.3" font-family="Times,serif" font-size="14.00">id :integer</text>
<text text-anchor="start" x="420" y="-476.3" font-family="Times,serif" font-size="14.00">email :character varying</text>
<text text-anchor="start" x="420" y="-461.3" font-family="Times,serif" font-size="14.00">username :character varying</text>
<text text-anchor="start" x="420" y="-446.3" font-family="Times,serif" font-size="14.00">name :character varying</text>
<text text-anchor="start" x="420" y="-431.3" font-family="Times,serif" font-size="14.00">last_name :character varying</text>
<text text-anchor="start" x="420" y="-416.3" font-family="Times,serif" font-size="14.00">address :character varying</text>
<text text-anchor="start" x="420" y="-401.3" font-family="Times,serif" font-size="14.00">phone_number :character varying</text>
<text text-anchor="start" x="420" y="-386.3" font-family="Times,serif" font-size="14.00">is_admin :boolean</text>
<text text-anchor="start" x="420" y="-371.3" font-family="Times,serif" font-size="14.00">created_at :timestamp without time zone</text>
<text text-anchor="start" x="420" y="-356.3" font-family="Times,serif" font-size="14.00">updated_at :timestamp without time zone</text>
<text text-anchor="start" x="420" y="-341.3" font-family="Times,serif" font-size="14.00">password :character varying</text>
</g>
<!-- Question&#45;&gt;User -->
<g id="edge4" class="edge"><title>Question&#45;&gt;User</title>
<path fill="none" stroke="#157e36" d="M467.688,-573.031C465.584,-569.796 463.675,-566.451 462,-563 458.267,-555.307 456.698,-547.425 456.796,-539.532"/>
<polygon fill="#157e36" stroke="#157e36" points="467.835,-573.234 470.038,-583.976 470.761,-577.288 473.687,-581.343 473.687,-581.343 473.687,-581.343 470.761,-577.288 477.336,-578.709 467.835,-573.234 467.835,-573.234"/>
<polygon fill="#157e36" stroke="#157e36" points="456.799,-539.493 462.252,-529.979 457.287,-534.517 457.774,-529.541 457.774,-529.541 457.774,-529.541 457.287,-534.517 453.295,-529.102 456.799,-539.493 456.799,-539.493"/>
<text text-anchor="middle" x="497" y="-551.8" font-family="Times,serif" font-size="14.00">voting_users</text>
</g>
<!-- Product -->
<g id="node9" class="node"><title>Product</title>
<path fill="none" stroke="black" d="M569,-740.5C569,-740.5 789,-740.5 789,-740.5 795,-740.5 801,-746.5 801,-752.5 801,-752.5 801,-879.5 801,-879.5 801,-885.5 795,-891.5 789,-891.5 789,-891.5 569,-891.5 569,-891.5 563,-891.5 557,-885.5 557,-879.5 557,-879.5 557,-752.5 557,-752.5 557,-746.5 563,-740.5 569,-740.5"/>
<text text-anchor="middle" x="679" y="-876.3" font-family="Times,serif" font-size="14.00">Product</text>
<polyline fill="none" stroke="black" points="557,-868.5 801,-868.5 "/>
<text text-anchor="start" x="565" y="-853.3" font-family="Times,serif" font-size="14.00">id :integer</text>
<text text-anchor="start" x="565" y="-838.3" font-family="Times,serif" font-size="14.00">name :character varying</text>
<text text-anchor="start" x="565" y="-823.3" font-family="Times,serif" font-size="14.00">description :text</text>
<text text-anchor="start" x="565" y="-808.3" font-family="Times,serif" font-size="14.00">details :text</text>
<text text-anchor="start" x="565" y="-793.3" font-family="Times,serif" font-size="14.00">prize :integer</text>
<text text-anchor="start" x="565" y="-778.3" font-family="Times,serif" font-size="14.00">stock :integer</text>
<text text-anchor="start" x="565" y="-763.3" font-family="Times,serif" font-size="14.00">created_at :timestamp without time zone</text>
<text text-anchor="start" x="565" y="-748.3" font-family="Times,serif" font-size="14.00">updated_at :timestamp without time zone</text>
</g>
<!-- Product&#45;&gt;Review -->
<g id="edge5" class="edge"><title>Product&#45;&gt;Review</title>
<path fill="none" stroke="#422cd6" d="M716.393,-732.862C768.097,-619.287 860.73,-415.806 911.087,-305.19"/>
<ellipse fill="none" stroke="#422cd6" cx="714.609" cy="-736.781" rx="4.00002" ry="4.00002"/>
<polygon fill="#422cd6" stroke="#422cd6" points="911.237,-304.861 919.476,-297.624 913.309,-300.31 915.381,-295.759 915.381,-295.759 915.381,-295.759 913.309,-300.31 911.285,-293.895 911.237,-304.861 911.237,-304.861"/>
</g>
<!-- Product&#45;&gt;Question -->
<g id="edge6" class="edge"><title>Product&#45;&gt;Question</title>
<path fill="none" stroke="#35c8ce" d="M623.08,-733.49C617.95,-726.011 612.788,-718.487 607.75,-711.145"/>
<ellipse fill="none" stroke="#35c8ce" cx="625.495" cy="-737.01" rx="4.00002" ry="4.00002"/>
<polygon fill="#35c8ce" stroke="#35c8ce" points="607.561,-710.868 605.614,-700.077 604.732,-706.745 601.904,-702.622 601.904,-702.622 601.904,-702.622 604.732,-706.745 598.193,-705.168 607.561,-710.868 607.561,-710.868"/>
</g>
<!-- User&#45;&gt;Answer -->
<g id="edge10" class="edge"><title>User&#45;&gt;Answer</title>
<path fill="none" stroke="#c0403f" d="M404.6,-369.539C359.33,-347.969 308.027,-323.253 253.463,-296.209"/>
<ellipse fill="none" stroke="#c0403f" cx="408.294" cy="-371.297" rx="4.00002" ry="4.00002"/>
<polygon fill="#c0403f" stroke="#c0403f" points="253.277,-296.117 246.321,-287.64 248.798,-293.894 244.32,-291.671 244.32,-291.671 244.32,-291.671 248.798,-293.894 242.319,-295.702 253.277,-296.117 253.277,-296.117"/>
</g>
<!-- User&#45;&gt;Order -->
<g id="edge11" class="edge"><title>User&#45;&gt;Order</title>
<path fill="none" stroke="#061d02" d="M456.787,-326.52C447.18,-313.583 437.622,-300.711 428.743,-288.754"/>
<ellipse fill="none" stroke="#061d02" cx="459.471" cy="-330.134" rx="4.00002" ry="4.00002"/>
<polygon fill="#061d02" stroke="#061d02" points="428.674,-288.661 426.325,-277.95 425.693,-284.647 422.713,-280.633 422.713,-280.633 422.713,-280.633 425.693,-284.647 419.1,-283.316 428.674,-288.661 428.674,-288.661"/>
</g>
<!-- User&#45;&gt;QuestionVote -->
<g id="edge12" class="edge"><title>User&#45;&gt;QuestionVote</title>
<path fill="none" stroke="#da4cb3" d="M610.991,-326.819C618.703,-316.433 626.387,-306.085 633.717,-296.215"/>
<ellipse fill="none" stroke="#da4cb3" cx="608.529" cy="-330.134" rx="4.00002" ry="4.00002"/>
<polygon fill="#da4cb3" stroke="#da4cb3" points="633.821,-296.074 643.396,-290.728 636.802,-292.06 639.783,-288.046 639.783,-288.046 639.783,-288.046 636.802,-292.06 636.17,-285.363 633.821,-296.074 633.821,-296.074"/>
</g>
<!-- User&#45;&gt;Review -->
<g id="edge8" class="edge"><title>User&#45;&gt;Review</title>
<path fill="none" stroke="#ad997d" d="M663.66,-337.239C679.459,-328.43 695.766,-320.414 712,-314 752.435,-298.024 768.81,-309.151 814,-295.986"/>
<ellipse fill="none" stroke="#ad997d" cx="659.917" cy="-339.364" rx="4.00002" ry="4.00002"/>
<polygon fill="#ad997d" stroke="#ad997d" points="814.231,-295.913 825.122,-297.193 818.999,-294.407 823.767,-292.902 823.767,-292.902 823.767,-292.902 818.999,-294.407 822.413,-288.611 814.231,-295.913 814.231,-295.913"/>
</g>
<!-- User&#45;&gt;Question -->
<g id="edge9" class="edge"><title>User&#45;&gt;Question</title>
<path fill="none" stroke="#8b7eb6" d="M547.647,-537.882C549.111,-549.192 550.574,-560.485 551.965,-571.227"/>
<ellipse fill="none" stroke="#8b7eb6" cx="547.095" cy="-533.618" rx="4.00001" ry="4.00001"/>
<polygon fill="#8b7eb6" stroke="#8b7eb6" points="551.979,-571.335 548.8,-581.83 552.621,-576.294 553.263,-581.252 553.263,-581.252 553.263,-581.252 552.621,-576.294 557.726,-580.674 551.979,-571.335 551.979,-571.335"/>
</g>
<!-- User&#45;&gt;Question -->
<g id="edge13" class="edge"><title>User&#45;&gt;Question</title>
<path fill="none" stroke="#045069" d="M555.938,-539.776C556.318,-542.542 556.673,-545.287 557,-548 557.9,-555.475 558.604,-563.309 559.155,-571.124"/>
<polygon fill="#045069" stroke="#045069" points="555.91,-539.584 558.914,-529.037 555.186,-534.636 554.462,-529.689 554.462,-529.689 554.462,-529.689 555.186,-534.636 550.009,-530.341 555.91,-539.584 555.91,-539.584"/>
<polygon fill="#045069" stroke="#045069" points="559.171,-571.374 555.303,-581.635 559.482,-576.364 559.794,-581.355 559.794,-581.355 559.794,-581.355 559.482,-576.364 564.285,-581.074 559.171,-571.374 559.171,-571.374"/>
<text text-anchor="middle" x="603" y="-551.8" font-family="Times,serif" font-size="14.00">voted_questions</text>
</g>
<!-- User&#45;&gt;Comment -->
<g id="edge7" class="edge"><title>User&#45;&gt;Comment</title>
<path fill="none" stroke="#907575" d="M525.292,-324.949C524.953,-273.018 530.618,-210.647 553,-159 557.451,-148.729 563.468,-138.854 570.294,-129.596"/>
<ellipse fill="none" stroke="#907575" cx="525.346" cy="-329.191" rx="4" ry="4"/>
<polygon fill="#907575" stroke="#907575" points="570.35,-129.524 580.036,-124.384 573.416,-125.575 576.481,-121.625 576.481,-121.625 576.481,-121.625 573.416,-125.575 572.927,-118.865 570.35,-129.524 570.35,-129.524"/>
</g>
</g>
</svg>
